<svg width="19" height="20" viewBox="0 0 19 20" fill="none" xmlns="http://www.w3.org/2000/svg">
<path d="M9.45522 0C8.41629 0 7.4007 0.308678 6.53686 0.886999C5.67303 1.46532 4.99975 2.28731 4.60217 3.24902C4.20459 4.21073 4.10057 5.26898 4.30325 6.28992C4.50594 7.31087 5.00623 8.24867 5.74086 8.98474C6.47549 9.7208 7.41146 10.2221 8.43043 10.4251C9.44939 10.6282 10.5056 10.524 11.4654 10.1256C12.4253 9.72729 13.2456 9.0527 13.8228 8.18718C14.4 7.32166 14.7081 6.30409 14.7081 5.26314C14.7081 3.86727 14.1547 2.52857 13.1696 1.54154C12.1845 0.554508 10.8484 0 9.45522 0ZM9.45522 8.42102C8.83186 8.42102 8.22251 8.23581 7.7042 7.88882C7.1859 7.54183 6.78194 7.04863 6.54339 6.47161C6.30484 5.89458 6.24243 5.25963 6.36404 4.64707C6.48565 4.0345 6.78582 3.47182 7.2266 3.03018C7.66738 2.58854 8.22897 2.28778 8.84034 2.16593C9.45172 2.04409 10.0854 2.10662 10.6613 2.34563C11.2372 2.58465 11.7295 2.9894 12.0758 3.50871C12.4221 4.02802 12.607 4.63857 12.607 5.26314C12.607 6.10066 12.2749 6.90388 11.6838 7.4961C11.0928 8.08832 10.2911 8.42102 9.45522 8.42102ZM18.9104 19.9999V18.9473C18.9104 16.9931 18.1356 15.1189 16.7565 13.7371C15.3773 12.3552 13.5068 11.5789 11.5564 11.5789H7.35406C5.40364 11.5789 3.53311 12.3552 2.15395 13.7371C0.7748 15.1189 0 16.9931 0 18.9473V19.9999H2.10116V18.9473C2.10116 17.5514 2.65459 16.2127 3.6397 15.2257C4.62481 14.2387 5.9609 13.6842 7.35406 13.6842H11.5564C12.9495 13.6842 14.2856 14.2387 15.2707 15.2257C16.2558 16.2127 16.8093 17.5514 16.8093 18.9473V19.9999H18.9104Z" fill="#0EBE7E"/>
</svg>
