<svg width="28" height="28" viewBox="0 0 28 28" fill="none" xmlns="http://www.w3.org/2000/svg">
<path d="M23.3334 14.3203C23.3334 14.7633 23.0042 15.1294 22.5771 15.1873L22.4584 15.1953L4.95837 15.1953C4.47512 15.1953 4.08337 14.8036 4.08337 14.3203C4.08337 13.8773 4.41255 13.5112 4.83964 13.4533L4.95837 13.4453L22.4584 13.4453C22.9416 13.4453 23.3334 13.8371 23.3334 14.3203Z" fill="#212121"/>
<path d="M12.6339 20.7286C12.9763 21.0696 12.9775 21.6236 12.6365 21.9661C12.3266 22.2774 11.8405 22.3067 11.4974 22.0532L11.3991 21.9687L4.34076 14.9407C4.02852 14.6298 4.00011 14.142 4.25556 13.7989L4.34071 13.7007L11.399 6.67151C11.7415 6.33051 12.2955 6.33165 12.6365 6.67407C12.9465 6.98535 12.9737 7.47152 12.7188 7.81354L12.6339 7.9115L6.19855 14.321L12.6339 20.7286Z" fill="#212121"/>
</svg>
