<svg width="21" height="21" viewBox="0 0 21 21" fill="none" xmlns="http://www.w3.org/2000/svg">
<path d="M10.4795 0C4.69483 0 0 4.70398 0 10.5C0 16.2959 4.69483 20.9999 10.4795 20.9999H15.7193V18.8999H10.4795C5.93141 18.8999 2.09591 15.0569 2.09591 10.5C2.09591 5.94298 5.93141 2.09999 10.4795 2.09999C15.0276 2.09999 18.8632 5.94298 18.8632 10.5V12.0015C18.8632 12.831 18.1191 13.6499 17.2912 13.6499C16.4633 13.6499 15.7193 12.831 15.7193 12.0015V10.5C15.7193 7.60197 13.3719 5.24998 10.4795 5.24998C7.58718 5.24998 5.23977 7.60197 5.23977 10.5C5.23977 13.398 7.58718 15.7499 10.4795 15.7499C11.9257 15.7499 13.2461 15.1619 14.1893 14.2064C14.8705 15.1409 16.0442 15.7499 17.2912 15.7499C19.3557 15.7499 20.9591 14.0699 20.9591 12.0015V10.5C20.9591 4.70398 16.2642 0 10.4795 0ZM10.4795 13.6499C8.73993 13.6499 7.33567 12.243 7.33567 10.5C7.33567 8.75697 8.73993 7.34997 10.4795 7.34997C12.2191 7.34997 13.6234 8.75697 13.6234 10.5C13.6234 12.243 12.2191 13.6499 10.4795 13.6499Z" fill="#0EBE7E"/>
</svg>
