<svg width="309" height="361" viewBox="0 0 309 361" fill="none" xmlns="http://www.w3.org/2000/svg">
<path fill-rule="evenodd" clip-rule="evenodd" d="M87.3119 352.58C123.232 340.589 158.34 316.347 220.07 326.08C281.801 335.812 324.437 256.467 301.618 217.542C291.483 204.971 284.287 188.402 301.618 161.899C317.818 111.915 286.655 80.533 257.921 65.7551C229.188 50.9771 159.198 20.2748 100.556 41.7942C41.9136 63.3136 18.1296 97.1161 14.2396 120.578C10.3496 144.04 25.8921 146.335 28.6729 183.445C31.4536 220.555 -6.84203 281.728 8.72995 315.385C24.3019 349.042 51.3921 364.572 87.3119 352.58Z" fill="#0EBE7E"/>
<path fill-rule="evenodd" clip-rule="evenodd" d="M249.242 319.654C247.965 317.806 245.855 316.71 243.914 315.532C238.939 312.513 234.644 308.56 230.405 304.616C221.574 296.4 212.822 288.103 204.151 279.727C201.968 277.617 199.777 275.488 198.017 273.032C193.988 267.406 188.851 262.534 182.968 258.762C182.13 258.224 181.225 257.692 180.221 257.651C179.027 257.603 177.935 258.256 176.943 258.904C169.231 263.943 162.354 270.191 156.658 277.335C155.955 278.218 155.233 279.235 155.364 280.345C155.461 281.165 156.01 281.858 156.542 282.502C163.223 290.586 170.418 298.268 178.071 305.489C180.148 307.449 182.265 309.382 184.107 311.554C186.651 314.555 188.628 317.966 190.913 321.159C201.462 335.901 218.319 345.504 235.998 350.64C238.18 351.274 240.458 351.852 242.71 351.526C247.727 350.799 251.148 344.876 249.181 340.322C247.773 337.063 248.826 333.354 249.723 329.927C250.62 326.5 251.269 322.588 249.242 319.654Z" fill="white"/>
<path fill-rule="evenodd" clip-rule="evenodd" d="M252.576 232.038C254.407 228.085 258.719 225.347 263.171 225.309C265.343 225.291 267.469 225.857 269.563 226.419C278.77 228.89 287.977 231.361 297.183 233.832C299.58 234.475 302.023 235.139 304.086 236.488C306.15 237.837 307.806 240.016 307.838 242.436C307.859 244.024 307.196 245.54 306.456 246.954C305.446 248.884 304.211 250.79 302.36 251.988C298.615 254.412 293.637 253.285 289.316 252.073C279.268 249.254 269.206 246.43 259.44 242.791C256.274 241.611 252.745 239.921 251.936 236.714C251.544 235.158 251.899 233.498 252.576 232.038Z" fill="white"/>
<path fill-rule="evenodd" clip-rule="evenodd" d="M127.071 311.762C131.185 309.625 136.974 311.609 138.808 315.784C140.009 318.519 139.61 321.639 139.189 324.586C138.068 332.428 136.947 340.271 135.827 348.114C135.597 349.723 135.365 351.34 134.872 352.892C133.926 355.864 131.927 358.601 129.087 360.025C126.246 361.449 122.546 361.364 120.038 359.437C118.159 357.993 117.115 355.71 116.742 353.408C116.369 351.106 116.599 348.755 116.86 346.438C117.713 338.857 118.889 331.311 120.384 323.826C121.312 319.18 122.783 313.988 127.071 311.762Z" fill="white"/>
<path fill-rule="evenodd" clip-rule="evenodd" d="M28.6173 155.665C28.1582 155.076 28.9428 154.334 29.6172 153.994C37.3469 150.094 45.1636 146.358 53.0598 142.789C55.1235 141.856 57.2262 140.924 59.4751 140.589C61.724 140.254 64.1757 140.585 65.9545 141.967C68.0626 143.604 68.8577 146.388 68.9887 149.012C69.0969 151.179 68.767 153.517 67.2755 155.129C66.5903 155.869 65.7071 156.403 64.8332 156.922C56.773 161.703 48.4181 166.013 39.8285 169.821C37.23 170.973 34.2328 172.087 31.6109 170.987C30.627 170.574 29.7927 169.875 29.093 169.085C25.8493 165.422 25.6407 159.537 28.6173 155.665Z" fill="white"/>
<path fill-rule="evenodd" clip-rule="evenodd" d="M105.745 79.9976C105.262 83.7345 107.034 87.6669 110.184 89.851C111.671 90.8821 112.219 92.8519 111.983 94.6149C111.746 96.3779 110.859 97.9872 109.953 99.5306C109.274 100.688 108.543 101.869 107.429 102.644C106.315 103.419 104.711 103.683 103.588 102.921C99.2792 99.9967 93.441 101.139 88.351 102.399C86.6637 102.817 85.0226 101.689 83.665 100.627C81.9421 99.28 80.2191 97.9328 78.4962 96.5855C77.8777 96.1019 77.2413 95.5974 76.8785 94.9104C76.4284 94.0582 76.462 93.0461 76.5734 92.0939C77.1311 87.3272 79.3409 82.9026 81.7483 78.7172C84.2352 74.3935 87.7137 69.7431 92.7879 69.3764C94.1112 69.2808 95.5753 69.5681 96.4135 70.5702C97.9017 72.3495 100.199 73.2421 102.184 74.4794C104.168 75.7167 106.039 77.7205 105.745 79.9976Z" fill="white"/>
<path fill-rule="evenodd" clip-rule="evenodd" d="M75.846 90.4222C74.351 91.7116 72.1847 92.0536 70.2115 91.7554C68.2383 91.4571 66.4082 90.5929 64.6326 89.7033C55.2986 85.0266 46.5014 79.3344 38.4573 72.7665C37.84 72.2625 37.2156 71.7403 36.8053 71.0652C36.3233 70.2719 36.1755 69.3317 36.0824 68.4144C35.0896 58.6283 39.6615 48.4788 47.7269 42.5639C51.0157 40.152 55.7141 38.4576 59.1199 40.7102C66.8928 45.8512 74.5076 51.219 81.9505 56.8041C85.2041 59.2454 88.4961 61.8055 90.6192 65.23C91.349 66.407 91.8745 68.0602 90.8859 69.0418C89.6577 65.3327 70.8429 90.7473 75.846 90.4222Z" fill="white"/>
<path fill-rule="evenodd" clip-rule="evenodd" d="M20.1508 331.466C16.0479 332.912 10.5147 331.25 9.40286 327.14C7.54391 320.269 17.7895 316.757 21.6171 310.707C26.1599 303.527 20.7144 294.459 15.3634 287.828C11.5664 290.919 6.036 294.097 2.12544 291.143C-2.61001 287.566 1.37476 280.087 6.20385 276.631C14.8651 270.432 25.9415 267.52 36.6287 268.634C39.3493 248.896 49.7592 230.256 65.2931 217.306C80.8271 204.357 101.342 197.219 121.783 197.649C119.498 159.044 142.477 120.111 177.878 102.608C181.721 100.709 185.835 99.0127 190.144 99.0379C194.454 99.0631 199.004 101.2 200.639 105.083C202.275 108.967 199.739 114.297 195.445 114.652C193.445 114.817 176.092 120.834 177.878 120.454C200.639 115.606 255.121 154.28 284.453 154.28C287.087 154.28 293.922 144.822 295.774 143.557C297.476 142.396 302.16 141.739 304.207 142.081C309.544 142.975 309.17 150.652 306.874 155.429C293.181 183.926 262.503 201.857 230.968 208.668C199.432 215.479 166.653 212.787 134.473 210.06C132.247 232.478 129.102 256.857 112.635 272.668C96.9806 287.7 72.2188 291.005 51.0256 285.318C51.0256 282.22 51.0256 282.22 51.2069 273.736C47.5307 291.346 40.14 308.212 29.6282 322.98C27.1421 326.472 24.2537 330.02 20.1508 331.466Z" fill="white"/>
<path d="M242.323 58.3783C241.021 60.0291 239.72 61.6799 238.418 63.3307C237.715 64.222 236.34 65.1583 235.592 64.3027C234.283 62.805 231.862 63.227 229.884 62.8285C228.603 62.5704 227.444 61.9272 226.309 61.2932C209.906 52.1278 193.502 42.9623 177.099 33.7968C175.803 33.0726 174.399 32.2211 173.969 30.8271C177.714 24.4427 184.036 15.6477 184.397 15.8603C188.332 18.6217 192.337 21.2872 196.409 23.8532C209.325 31.9937 222.882 39.1195 236.071 46.8354C237.354 47.5862 238.761 48.518 239 49.9575C239.184 51.0659 238.349 53.811 239.138 53.2795C239.562 52.9934 240.136 53.2505 240.579 53.5084C241.918 54.2881 243.455 55.4751 243.13 56.9615C243.013 57.4945 242.663 57.9461 242.323 58.3783Z" fill="white"/>
<path fill-rule="evenodd" clip-rule="evenodd" d="M174.184 122.032C175.115 121.883 175.956 121.277 176.373 120.454C183.294 121.12 190.154 122.379 196.848 124.213C211.998 128.364 226.137 135.399 239.892 142.849C253.979 150.48 269.807 155.042 285.889 156.109C286.011 156.965 285.27 157.757 284.425 158.023C283.581 158.288 282.665 158.159 281.788 158.028C268.455 156.029 254.707 153.884 243.264 146.925C231.587 139.823 219.184 133.856 206.299 129.138C202.975 127.922 199.617 126.787 196.207 125.823C189.034 123.793 181.637 122.52 174.184 122.032Z" fill="#00160A"/>
<path fill-rule="evenodd" clip-rule="evenodd" d="M252.576 232.038C254.407 228.085 258.719 225.347 263.171 225.309C265.343 225.291 267.469 225.857 269.563 226.419C278.77 228.89 287.977 231.361 297.183 233.832C299.58 234.475 302.023 235.139 304.086 236.488C306.15 237.837 307.806 240.016 307.838 242.436C307.859 244.024 307.196 245.54 306.456 246.954C305.446 248.884 304.211 250.79 302.36 251.988C298.615 254.412 293.637 253.285 289.316 252.073C279.268 249.254 269.206 246.43 259.44 242.791C256.274 241.611 252.745 239.921 251.936 236.714C251.544 235.158 251.899 233.498 252.576 232.038ZM276.181 242.98C275.907 244.816 276.297 247.254 278.164 247.62C282.702 248.507 287.197 249.604 291.629 250.906C294.457 251.737 297.553 252.643 300.28 251.537C302.327 250.706 303.751 248.886 304.961 247.076C306.34 245.014 307.592 242.353 306.364 240.203C305.543 238.765 303.857 238.052 302.281 237.463C296.232 235.206 290.029 233.34 283.727 231.884C281.851 231.451 280.185 233.118 279.195 234.729C277.645 237.249 276.614 240.072 276.181 242.98Z" fill="#00160A"/>
<path fill-rule="evenodd" clip-rule="evenodd" d="M83.538 60.1238C83.0716 59.8575 82.5677 59.6073 82.0271 59.6031C81.4446 59.5985 80.9041 59.8791 80.3998 60.1632C70.7045 65.6247 63.7027 75.4164 61.8047 86.1678C65.7356 89.1998 70.8429 90.7473 75.846 90.4222C74.351 91.7116 72.1847 92.0536 70.2115 91.7554C68.2383 91.4571 66.4082 90.5929 64.6326 89.7033C55.2986 85.0266 46.5014 79.3344 38.4573 72.7665C37.84 72.2625 37.2156 71.7403 36.8053 71.0652C36.3233 70.2719 36.1755 69.3317 36.0824 68.4144C35.0896 58.6283 39.6615 48.4788 47.7269 42.5639C51.0157 40.152 55.7141 38.4576 59.1199 40.7102C66.8928 45.8512 74.5076 51.219 81.9505 56.8041C85.2041 59.2454 88.4961 61.8055 90.6192 65.23C91.349 66.407 91.8745 68.0602 90.8859 69.0418C89.6577 65.3327 86.9898 62.0947 83.538 60.1238ZM42.2902 49.9775C41.1843 51.4019 40.0897 52.8597 39.3794 54.5061C38.5683 56.3862 38.29 58.4366 38.0193 60.4588C37.5311 64.1059 37.1581 68.1954 39.4864 71.091C40.3196 72.1272 41.4334 72.9089 42.5315 73.6761C47.4381 77.1042 52.3448 80.5323 57.2515 83.9604C57.838 84.3702 58.4563 84.7927 59.1718 84.8856C59.8872 84.9786 60.7205 84.6186 60.8882 83.9348C63.4429 73.5208 70.5337 64.2392 80.0409 58.8645C80.6485 58.521 80.137 57.622 79.6009 57.1797C74.8171 53.2331 69.7355 49.629 64.4107 46.4062C64.1136 46.2263 63.7997 46.0425 63.4505 46.0211C63.0002 45.9936 62.5854 46.2394 62.2066 46.4783C57.5245 49.4312 53.0267 52.7855 49.5698 57.0495C46.113 61.3134 43.7477 66.5797 43.7781 72.0127C43.5274 72.4502 42.9042 71.8579 42.8213 71.3634C42.1459 67.3381 43.8945 63.2953 46.0966 59.8261C49.9229 53.7982 55.2586 48.6866 61.5099 45.0602C59.6445 41.6431 54.6981 40.8175 51.0226 42.2879C47.3472 43.7582 44.687 46.8907 42.2902 49.9775V49.9775Z" fill="#00160A"/>
<path fill-rule="evenodd" clip-rule="evenodd" d="M138.808 315.784C140.009 318.519 139.61 321.639 139.189 324.586L135.827 348.114C135.597 349.723 135.365 351.34 134.872 352.892C133.926 355.864 131.927 358.601 129.087 360.025C126.246 361.449 122.546 361.364 120.038 359.437C118.159 357.993 117.115 355.71 116.742 353.408C116.369 351.106 116.599 348.755 116.86 346.438C117.713 338.857 118.889 331.311 120.384 323.826L120.48 323.351C121.415 318.831 122.928 313.913 127.071 311.762C131.185 309.625 136.974 311.609 138.808 315.784ZM121.031 336.312L121.032 336.301C120.749 336.442 120.459 336.596 120.161 336.761C119.823 338.839 119.523 340.922 119.277 343.012C118.943 345.858 118.711 348.716 118.628 351.579L118.62 351.964C118.605 352.931 118.665 353.92 119.145 354.757C119.874 356.026 121.391 356.642 122.837 357.001C125.145 357.575 127.749 357.682 129.755 356.431C132.178 354.921 133.042 351.92 133.588 349.169C134.092 346.631 134.487 344.073 134.773 341.504L134.809 341.16C134.886 340.355 134.899 339.525 134.532 338.809C134.193 338.151 133.573 337.675 132.936 337.278C132.732 337.151 132.525 337.03 132.314 336.915C130.682 336.351 130.682 335.483 127.389 335.41C125.229 335.363 123.024 335.483 121.031 336.312Z" fill="#00160A"/>
<path fill-rule="evenodd" clip-rule="evenodd" d="M28.6173 155.665C28.1582 155.076 28.9428 154.334 29.6172 153.994C37.3469 150.094 45.1636 146.358 53.0598 142.789C55.1235 141.856 57.2262 140.924 59.4751 140.589C61.724 140.254 64.1757 140.585 65.9545 141.967C68.0626 143.604 68.8577 146.388 68.9887 149.012C69.0969 151.179 68.767 153.517 67.2755 155.129C66.5903 155.869 65.7071 156.403 64.8332 156.922C56.773 161.703 48.4181 166.013 39.8285 169.821C37.23 170.973 34.2328 172.087 31.6109 170.987C30.627 170.574 29.7927 169.875 29.093 169.085C25.8493 165.422 25.6407 159.537 28.6173 155.665ZM66.6548 145.273C66.0754 143.72 64.5629 142.606 62.9185 142.197C61.2742 141.789 59.5198 142.013 57.9077 142.529C56.6961 142.917 55.5459 143.465 54.4 144.01C52.4171 144.954 50.4342 145.898 48.4513 146.842C47.8448 147.13 47.2125 147.44 46.8233 147.977C46.5474 148.358 46.4198 148.819 46.2973 149.269C45.8224 151.014 45.344 152.828 45.6711 154.604C46.1546 157.231 48.2745 159.238 50.2831 161.053C50.664 161.398 51.0707 161.755 51.5783 161.864C52.2524 162.008 52.9288 161.682 53.5379 161.366C56.3725 159.894 59.207 158.423 62.0416 156.952C64.226 155.818 66.5799 154.503 67.4606 152.25C68.335 150.013 67.4938 147.523 66.6548 145.273Z" fill="#00160A"/>
<path fill-rule="evenodd" clip-rule="evenodd" d="M161.603 4.60338C161.896 4.1789 162.499 4.04679 163.012 4.15392C163.525 4.26105 163.971 4.55963 164.402 4.85167C167.44 6.91135 170.478 8.97103 173.516 11.0307C174.024 11.3753 174.575 11.7827 174.678 12.3776C174.456 12.861 173.708 12.6321 173.258 12.334C169.373 9.75713 165.488 7.18025 161.603 4.60338Z" fill="#00160A"/>
<path fill-rule="evenodd" clip-rule="evenodd" d="M199.375 36.1798C198.911 36.1188 199.032 35.4287 199.28 35.0419C200.21 33.5951 201.141 32.1483 202.071 30.7014C202.397 30.7606 202.353 31.2298 202.219 31.525C201.467 33.1798 200.51 34.7462 199.375 36.1798Z" fill="#00160A"/>
<path fill-rule="evenodd" clip-rule="evenodd" d="M156.096 276.18C161.72 269.842 168.038 264.088 174.907 259.047C176.495 257.881 178.227 256.711 180.211 256.578C183.36 256.366 185.982 258.766 188.163 260.988C193.902 266.837 199.641 272.686 205.38 278.535C212.149 285.434 218.921 292.335 226.028 298.903C233.641 305.939 241.663 312.608 250.507 318.109C253.217 319.794 253.425 323.62 252.548 326.632C251.672 329.645 250.015 332.523 250.044 335.654C250.056 336.979 250.374 338.281 250.582 339.59C251.187 343.392 250.793 347.515 248.542 350.675C246.291 353.836 241.876 355.691 238.207 354.27C223.938 348.742 209.281 342.975 198.216 332.604C195.467 330.028 192.981 327.201 190.499 324.379C178.838 311.119 167.177 297.86 155.516 284.6C154.753 283.732 153.963 282.814 153.716 281.696C153.268 279.671 154.705 277.748 156.096 276.18M249.242 319.654C247.965 317.805 245.855 316.71 243.914 315.532C238.939 312.513 234.644 308.559 230.406 304.616C221.574 296.4 212.822 288.103 204.151 279.726C201.968 277.617 199.777 275.488 198.017 273.031C193.988 267.405 188.851 262.534 182.968 258.761C182.13 258.223 181.225 257.691 180.221 257.651C179.027 257.603 177.935 258.256 176.943 258.904C169.231 263.942 162.354 270.191 156.658 277.335C155.955 278.217 155.233 279.235 155.364 280.345C155.461 281.165 156.01 281.858 156.542 282.501C163.223 290.586 170.418 298.268 178.071 305.489C180.148 307.449 182.265 309.381 184.107 311.554C186.651 314.555 188.628 317.966 190.913 321.159C201.462 335.9 218.319 345.504 235.998 350.64C238.18 351.274 240.458 351.852 242.71 351.525C247.727 350.798 251.148 344.875 249.181 340.322C247.773 337.062 248.826 333.353 249.723 329.926C250.62 326.5 251.269 322.588 249.242 319.654Z" fill="#00160A"/>
<path fill-rule="evenodd" clip-rule="evenodd" d="M192.003 25.5306C191.349 26.7141 190.696 27.8975 190.043 29.081C189.787 27.3706 190.952 25.7987 192.052 24.4428C192.364 24.6956 192.195 25.1828 192.003 25.5306L192.003 25.5306Z" fill="#00160A"/>
<path fill-rule="evenodd" clip-rule="evenodd" d="M195.593 29.4893C195.73 30.728 195.177 32.0183 194.178 32.7959C194.064 31.5586 194.611 30.281 195.593 29.4893L195.593 29.4893Z" fill="#00160A"/>
<path fill-rule="evenodd" clip-rule="evenodd" d="M212.448 36.987C212.237 38.2778 211.568 39.4933 210.579 40.3774C210.171 40.7424 209.704 41.0556 209.178 41.2241C208.973 40.9685 209.199 40.6068 209.418 40.3627C210.428 39.2375 211.438 38.1122 212.448 36.987Z" fill="#00160A"/>
<path fill-rule="evenodd" clip-rule="evenodd" d="M204.971 37.415C205.143 36.8543 205.446 36.3321 205.849 35.8988C206.255 35.8398 206.212 36.4959 205.984 36.8281C205.618 37.3619 205.252 37.8958 204.885 38.4297C204.494 38.2392 204.497 37.5867 204.889 37.3989L204.971 37.415Z" fill="#00160A"/>
<path fill-rule="evenodd" clip-rule="evenodd" d="M223.273 43.993C223.004 44.6442 222.396 45.1527 221.695 45.3135C222.233 44.4754 222.771 43.6373 223.308 42.7992C223.557 43.1509 223.542 43.6583 223.273 43.9957L223.273 43.993Z" fill="#00160A"/>
<path fill-rule="evenodd" clip-rule="evenodd" d="M231.04 49.4394C231.13 49.1156 231.514 48.9003 231.847 48.9861C231.616 49.6318 231.287 50.2439 230.873 50.796C230.47 50.4515 230.546 49.7216 231.011 49.4622L231.04 49.4394Z" fill="#00160A"/>
<path fill-rule="evenodd" clip-rule="evenodd" d="M105.745 79.9976C105.262 83.7345 107.034 87.6669 110.184 89.851C111.671 90.8821 112.219 92.8519 111.983 94.6149C111.746 96.3779 110.859 97.9872 109.953 99.5306C109.274 100.688 108.543 101.869 107.429 102.644C106.315 103.419 104.711 103.683 103.588 102.921C99.2792 99.9967 93.441 101.139 88.351 102.399C86.6637 102.817 85.0226 101.689 83.665 100.627C81.9421 99.28 80.2191 97.9328 78.4962 96.5855C77.8777 96.1019 77.2413 95.5974 76.8785 94.9104C76.4284 94.0582 76.462 93.0461 76.5734 92.0939C77.1311 87.3272 79.3409 82.9026 81.7483 78.7172C84.2352 74.3935 87.7137 69.7431 92.7879 69.3764C94.1112 69.2808 95.5753 69.5681 96.4135 70.5702C97.9017 72.3495 100.199 73.2421 102.184 74.4794C104.168 75.7167 106.039 77.7205 105.745 79.9976ZM85.0362 79.652C84.6282 79.441 84.1568 79.2245 83.7229 79.3788C83.4394 79.4796 83.2367 79.72 83.0524 79.9528C80.8135 82.7818 79.1597 86.0484 78.2187 89.5008C77.9254 90.5768 77.7058 91.7451 78.1233 92.7814C78.4534 93.6007 79.1386 94.2267 79.8027 94.8235C81.301 96.1696 82.7992 97.5157 84.2975 98.8618C85.329 99.7886 86.606 100.785 87.9752 100.486C92.9455 99.3974 98.3807 98.3562 102.945 100.56C104.834 101.472 107.221 100.507 108.541 98.9062C109.861 97.3053 110.369 95.2285 110.839 93.227C107.145 90.4916 104.342 86.6328 102.922 82.33C102.723 81.7287 101.786 82.1044 101.341 82.5633C98.8586 85.121 96.3763 87.6788 93.8939 90.2365C92.2478 91.9325 90.4738 94.0338 90.9665 96.3179C91.1012 96.942 90.0116 97.2102 89.5929 96.7197C89.1743 96.2293 89.2932 95.5001 89.4833 94.8898C91.2541 89.2042 96.8077 85.6086 100.835 81.146C101.621 80.2752 102.397 79.235 102.296 78.0798C102.19 76.8659 101.16 75.9513 100.2 75.17C98.3477 73.662 96.4022 72.1208 94.0607 71.549C91.7193 70.9771 88.866 71.6751 87.7369 73.7533C91.3222 75.3647 94.7923 77.2192 98.1136 79.2991C98.5844 79.5938 99.0725 80.2781 98.6058 80.5789C95.7794 79.043 92.953 77.5071 90.1265 75.9712C89.2468 75.4931 88.3355 75.005 87.3334 74.9042C86.3314 74.8033 85.2055 75.1918 84.7619 76.0729C84.1912 77.2065 84.9929 78.6001 86.0826 79.2838C87.1724 79.9675 88.4933 80.1869 89.6936 80.6638C91.4507 81.3619 92.9582 82.6411 93.9091 84.2407C90.9515 82.7111 87.9938 81.1815 85.0362 79.652Z" fill="#00160A"/>
<path fill-rule="evenodd" clip-rule="evenodd" d="M225.717 49.3186C225.604 49.7068 225.271 50.0264 224.87 50.1306C225.011 49.0185 225.682 47.9809 226.652 47.3776C226.674 48.1016 226.283 48.8247 225.658 49.2164L225.717 49.3186Z" fill="#00160A"/>
<path fill-rule="evenodd" clip-rule="evenodd" d="M216.337 43.546C216.16 43.9332 215.757 44.2128 215.324 44.249C215.421 43.5293 215.721 42.8366 216.184 42.2676C216.365 42.0448 216.596 41.8282 216.886 41.7968C217.176 41.7655 217.501 42.0211 217.424 42.2952C217.047 42.6932 216.671 43.0911 216.294 43.4891L216.337 43.546Z" fill="#00160A"/>
<path fill-rule="evenodd" clip-rule="evenodd" d="M155.996 136.278C156.073 136.483 155.708 136.659 155.587 136.476C155.515 136.284 155.568 136.055 155.716 135.911C155.825 136.017 155.934 136.123 156.043 136.229L155.996 136.278Z" fill="#00160A"/>
<path fill-rule="evenodd" clip-rule="evenodd" d="M242.836 63.5704C243.394 63.223 243.966 62.862 244.344 62.333C244.722 61.804 244.862 61.0587 244.503 60.5169C243.82 60.4306 243.186 60.0293 242.827 59.4562C242.812 59.1128 243.17 58.8024 243.519 58.8579C244.191 59.1443 244.892 59.4512 245.348 60.0116C245.804 60.5719 245.916 61.4675 245.392 61.9684C250.49 65.382 255.587 68.7957 260.685 72.2094C260.378 72.4285 259.948 72.2895 259.602 72.1363C255.05 70.1222 251.217 66.8717 247.055 64.1731C246.089 63.5468 244.644 63.0055 243.911 63.8814C242.929 65.0538 240.644 64.6532 240.144 63.2209C240.05 62.6858 240.976 62.6556 241.402 63.0057C241.828 63.3557 242.367 63.8629 242.836 63.5704Z" fill="#00160A"/>
<path fill-rule="evenodd" clip-rule="evenodd" d="M233.996 319.568C234.908 318.411 235.846 317.274 236.807 316.156C237.091 315.827 237.382 315.494 237.751 315.259C239.158 314.362 241.023 315.174 242.429 316.072C243.98 317.063 245.458 318.161 246.85 319.356C248.002 320.345 249.148 321.491 249.463 322.956C249.778 324.421 248.873 326.218 247.342 326.347C246.404 328.005 245.065 329.446 243.464 330.52C242.556 331.13 241.314 330.755 240.327 330.274C237.501 328.895 235.061 326.775 233.334 324.196C233.058 323.785 232.796 323.351 232.696 322.87C232.45 321.676 233.235 320.533 233.996 319.568ZM243.264 329.837C244.106 328.671 244.947 327.504 245.788 326.338C244.979 325.404 243.501 325.403 242.442 324.749C241.862 324.392 241.43 323.852 241.01 323.324C239.78 321.775 238.55 320.227 237.32 318.678C236.295 319.723 235.342 320.835 234.472 322.006C234.345 322.177 234.216 322.359 234.194 322.569C234.168 322.809 234.286 323.039 234.407 323.249C236.268 326.5 239.555 328.945 243.264 329.837ZM241.698 316.854C240.911 316.327 239.694 315.858 239.14 316.617C238.804 317.077 238.978 317.714 239.201 318.236C240.436 321.125 242.838 323.523 245.774 324.795C246.617 325.16 247.897 325.262 248.184 324.408C248.29 324.091 248.2 323.747 248.089 323.432C247.057 320.527 244.3 318.594 241.698 316.854Z" fill="#00160A"/>
<path fill-rule="evenodd" clip-rule="evenodd" d="M169.271 278.727C168.774 279.429 168.276 280.131 167.779 280.833C167.307 281.499 166.82 282.206 166.759 283.013C166.704 283.733 166.999 284.433 167.327 285.081C168.767 287.93 170.965 290.412 173.647 292.219C172.908 293.107 171.431 292.587 170.494 291.898C168.018 290.078 166.152 287.484 165.241 284.597C165.018 283.891 164.849 283.151 164.932 282.417C165.104 280.889 166.301 279.686 167.431 278.613C168.8 277.311 170.386 275.921 172.299 275.948C173.557 275.965 174.715 276.611 175.718 277.351C178.611 279.485 180.815 282.962 180.174 286.441C180.016 287.296 179.357 288.306 178.499 288.068C175.381 287.202 172.611 285.194 170.866 282.532C170.498 281.972 170.146 281.356 169.549 281.035C169.531 280.259 169.438 279.486 169.271 278.727ZM172.206 278.295C171.394 278.793 171.297 279.942 171.605 280.828C172.432 283.207 175.169 284.341 176.855 286.242C177.074 286.488 177.297 286.763 177.618 286.852C178.106 286.987 178.619 286.608 178.795 286.145C178.971 285.682 178.895 285.168 178.8 284.683C178.527 283.285 178.106 281.892 177.32 280.694C176.534 279.495 175.347 278.499 173.931 278.151C173.356 278.01 172.709 277.987 172.206 278.295Z" fill="#00160A"/>
<path fill-rule="evenodd" clip-rule="evenodd" d="M227.149 301.386C227.724 301.658 228.028 302.269 228.29 302.837C228.685 303.692 229.08 304.547 229.475 305.402C229.64 305.759 229.808 306.128 229.822 306.52C229.844 307.106 229.535 307.756 229.873 308.241C228.287 309.464 226.797 310.807 225.422 312.254C225.048 312.647 224.662 313.062 224.149 313.258C223.188 313.625 222.12 313.115 221.276 312.537C219.289 311.175 217.651 309.335 216.549 307.226C215.987 306.152 215.644 304.658 216.597 303.888C216.904 303.64 217.003 303.231 217.116 302.858C217.644 301.119 218.875 299.593 220.484 298.681C220.717 298.549 220.968 298.426 221.237 298.416C221.471 298.408 221.699 298.485 221.92 298.561C223.096 298.967 224.273 299.373 225.449 299.779C225.942 299.949 226.536 300.271 226.464 300.775C226.418 301.098 226.849 301.243 227.149 301.386M218.291 302.372C217.74 303.516 217.188 304.78 217.512 306.003C217.638 306.479 217.892 306.914 218.17 307.324C219.184 308.822 220.569 310.079 222.174 310.959C223.208 311.526 224.594 311.905 225.508 311.168C226.21 310.602 226.437 309.503 227.298 309.21C227.755 309.054 227.783 308.379 227.47 308.02C227.156 307.66 226.657 307.527 226.2 307.371C223.65 306.506 221.594 304.371 220.87 301.837C220.805 301.611 220.746 301.373 220.592 301.192C220.26 300.801 219.597 300.84 219.174 301.137C218.752 301.434 218.512 301.913 218.291 302.372M228.278 306.492C228.947 305.263 227.896 303.843 226.915 302.832C226.316 302.215 225.717 301.598 225.118 300.981C224.664 300.513 224.177 300.026 223.54 299.857C222.902 299.688 222.085 299.991 221.96 300.622C221.906 300.895 221.986 301.174 222.08 301.435C223.012 304.037 225.484 306.054 228.278 306.492Z" fill="#00160A"/>
<path fill-rule="evenodd" clip-rule="evenodd" d="M214.343 315.259C216.41 315.609 217.998 317.179 219.435 318.667C220.015 319.267 220.601 319.876 220.999 320.602C221.941 322.319 221.684 324.47 220.821 326.226C219.957 327.981 218.56 329.424 217.185 330.836C216.37 331.672 215.369 332.579 214.194 332.442C213.757 332.391 213.353 332.196 212.968 331.99C209.528 330.146 206.77 327.124 205.294 323.58C205.1 323.115 204.924 322.616 204.998 322.119C205.071 321.631 205.373 321.209 205.667 320.808C206.73 319.356 207.812 317.884 209.247 316.776C210.681 315.668 212.54 314.953 214.343 315.259M207.49 321.438C206.943 321.978 206.304 322.557 206.277 323.315C206.265 323.658 206.385 323.991 206.524 324.306C207.812 327.24 210.662 329.188 213.375 330.977C213.552 331.094 213.74 331.215 213.953 331.228C214.189 331.243 214.41 331.123 214.609 330.998C215.591 330.378 216.398 329.533 217.195 328.697C217.593 328.279 218.01 327.824 218.095 327.259C218.18 326.695 217.754 326.025 217.17 326.076C215.947 326.183 214.767 325.571 213.842 324.784C212.215 323.401 211.146 321.41 210.906 319.319C210.823 318.598 210.804 317.794 210.282 317.276C209.647 318.825 208.692 320.249 207.49 321.438ZM213.804 316.994C213.289 316.956 212.734 317.036 212.343 317.364C211.444 318.119 211.932 319.554 212.589 320.517C213.585 321.979 214.832 323.279 216.262 324.346C216.804 324.751 217.39 325.13 218.057 325.27C218.724 325.409 219.491 325.264 219.934 324.758C220.378 324.249 220.402 323.49 220.179 322.859C219.955 322.227 219.523 321.691 219.112 321.156C217.706 319.324 216.145 317.17 213.804 316.994L213.804 316.994Z" fill="#00160A"/>
<path fill-rule="evenodd" clip-rule="evenodd" d="M194.298 312.873C193.531 313.445 192.459 313.513 191.534 313.243C190.609 312.973 189.807 312.405 189.076 311.791C187.295 310.295 185.816 308.459 184.746 306.419C184.176 305.332 183.713 304.139 183.804 302.922C183.941 301.1 185.269 299.593 186.611 298.317C187.241 297.718 187.932 297.114 188.791 296.925C189.629 296.741 190.502 296.982 191.3 297.292C195.343 298.864 198.53 302.385 199.624 306.489C199.027 309.232 196.584 311.169 194.298 312.873ZM191.193 311.128C192.064 311.63 193.105 312.057 194.064 311.743C195.013 311.432 195.578 310.491 195.935 309.58C194.835 308.326 193.184 307.671 191.907 306.589C189.637 304.666 188.786 301.641 188.049 298.8C186.798 299.81 185.8 301.115 185.164 302.571C184.982 302.989 184.826 303.438 184.875 303.89C184.911 304.215 185.051 304.519 185.199 304.813C186.514 307.423 188.625 309.647 191.193 311.128ZM189.068 299.912C189.019 300.357 189.245 300.783 189.476 301.17C190.879 303.519 192.753 305.601 194.961 307.264C195.634 307.771 196.56 308.252 197.285 307.818C197.718 307.558 197.917 307.041 197.959 306.548C198.074 305.223 197.287 303.995 196.482 302.92C195.283 301.319 193.891 299.74 192.006 298.991C191.452 298.771 190.84 298.627 190.256 298.753C189.671 298.879 189.132 299.332 189.068 299.912V299.912Z" fill="#00160A"/>
<path fill-rule="evenodd" clip-rule="evenodd" d="M150.433 10.4171C149.599 11.4875 148.908 13.3069 150.139 13.9136C151.104 14.3893 152.149 13.466 152.817 12.6371C155.438 9.3856 158.058 6.13413 160.678 2.88266C161.318 3.99187 160.586 5.34963 159.872 6.41468C157.89 9.36996 155.795 12.4329 152.654 14.1946C158.063 16.786 163.221 19.873 168.038 23.4015C170.099 22.6404 171.811 21.0244 172.657 19.0414C172.07 19.586 171.114 19.1764 170.435 18.7467C166.154 16.0393 161.962 13.1978 157.869 10.2281C158.157 9.47064 159.326 9.79901 160.011 10.2549C163.804 12.7813 167.597 15.3078 171.39 17.8342C172.317 18.4516 173.464 17.4517 174.112 16.5582C175.534 14.5975 176.955 12.6369 178.377 10.6762C178.899 9.95584 179.47 9.19792 180.314 8.87838C181.754 8.3329 183.302 9.26213 184.553 10.1468C184.92 10.4063 185.305 10.6883 185.468 11.1001C185.751 11.8124 185.271 12.5774 184.813 13.1973C180.359 19.2292 175.904 25.261 171.45 31.2929C171.248 31.5669 171.036 31.8493 170.735 32.0167C169.966 32.4446 168.997 31.9532 168.356 31.3575C167.451 30.5153 166.081 29.1109 166.879 27.6987C167.676 26.2865 167.71 26.2231 168.381 25.1457C162.728 20.9642 156.837 16.6725 149.907 15.1793C148.726 14.9249 148.084 13.5749 148.224 12.4049C148.364 11.2348 149.074 10.2143 149.763 9.2461C151.399 6.94655 153.036 4.64699 154.672 2.34743C155.093 1.75602 155.523 1.15467 156.109 0.715393C157.173 -0.0839117 158.714 -0.228552 159.916 0.357965C161.118 0.944482 161.921 2.23307 161.901 3.54227C161.176 2.85129 160.42 2.14116 159.467 1.80198C158.514 1.46281 157.303 1.59976 156.69 2.38692C154.604 5.06364 152.519 7.74035 150.433 10.4171ZM167.489 28.1734C167.489 29.3839 168.452 30.0433 169.185 30.3188C169.917 30.5943 170.866 30.4847 171.321 29.8616C175.338 24.3644 179.355 18.8671 183.371 13.3698C183.547 13.1299 183.725 12.8832 183.803 12.5986C183.968 11.9896 183.618 11.3369 183.112 10.9447C182.606 10.5526 181.969 10.3662 181.348 10.1883C181.069 10.1081 180.76 10.0295 180.495 10.1482C180.316 10.2284 180.189 10.3861 180.07 10.5382C176.71 14.811 173.506 19.1997 170.465 23.6934C170.345 23.4666 168.308 26.3372 167.489 28.1734Z" fill="#00160A"/>
<path fill-rule="evenodd" clip-rule="evenodd" d="M107.67 93.1523C107.538 93.9919 106.827 94.6078 106.262 95.2551C105.026 96.6724 104.378 98.476 103.756 100.235C103.025 99.4584 102.908 98.2751 103.186 97.2571C103.465 96.2391 104.081 95.3451 104.687 94.4725C105.035 93.9708 105.4 93.4541 105.929 93.1361C106.458 92.8181 107.202 92.7543 107.67 93.1523L107.67 93.1523Z" fill="#00160A"/>
<path fill-rule="evenodd" clip-rule="evenodd" d="M242.323 58.3783C241.021 60.0291 239.72 61.6799 238.418 63.3307C237.715 64.2219 236.34 65.1582 235.592 64.3027C234.283 62.8049 231.862 63.227 229.884 62.8285C228.603 62.5704 227.444 61.9272 226.309 61.2932C209.906 52.1277 193.502 42.9623 177.099 33.7968C175.803 33.0726 174.399 32.2211 173.969 30.8271C191.516 39.9965 208.769 49.6996 225.694 59.9175C227.77 61.1707 230.633 62.3836 232.429 60.771C232.945 60.308 233.262 59.678 233.568 59.0634C235.146 55.8951 236.724 52.7267 238.302 49.5584C220.582 38.4588 201.242 29.805 184.414 17.4586C184.077 17.2113 183.715 16.9229 183.647 16.5172C183.58 16.1115 184.036 15.6477 184.397 15.8603C188.332 18.6217 192.337 21.2871 196.409 23.8532C209.325 31.9937 222.882 39.1195 236.071 46.8354C237.354 47.5862 238.761 48.518 239 49.9574C239.184 51.0659 238.607 52.145 238.048 53.1273C236.9 55.1484 235.751 57.1695 234.602 59.1907C234.197 59.9025 233.778 60.7021 233.975 61.4929C234.283 62.7287 235.994 63.1774 237.192 62.6712C238.389 62.165 239.171 61.046 239.887 59.9828C240.542 59.0106 241.196 58.0383 241.851 57.0661C242.377 56.2855 241.182 55.5159 240.27 55.2268C239.359 54.9378 238.349 53.8109 239.138 53.2795C239.562 52.9933 240.136 53.2505 240.579 53.5084C241.918 54.288 243.455 55.475 243.13 56.9615C243.013 57.4945 242.663 57.9461 242.323 58.3783Z" fill="#00160A"/>
<path fill-rule="evenodd" clip-rule="evenodd" d="M99.8494 77.6869C100.123 77.8395 100.415 78.0139 100.526 78.3012C100.637 78.5886 100.425 78.9946 100.114 78.9501C97.2251 77.3321 94.3366 75.7141 91.4481 74.0961C91.5005 73.776 91.8666 73.579 92.1992 73.5911C92.5317 73.6032 92.8352 73.7687 93.1239 73.93C95.3657 75.1823 97.6075 76.4346 99.8494 77.6869Z" fill="#00160A"/>
<path fill-rule="evenodd" clip-rule="evenodd" d="M58.5978 61.9632C57.9905 60.4409 58.8755 58.758 59.8655 57.4399C61.3749 55.4303 63.2011 53.6469 65.2603 52.1714C65.7729 51.8042 66.5584 51.4795 66.9715 51.9509C67.4719 52.522 66.7083 53.3026 66.0716 53.7258C63.3836 55.512 61.5099 58.213 59.6818 60.8351C59.3818 61.2653 59.0645 61.7105 58.5978 61.9632L58.5978 61.9632Z" fill="#FFB61D"/>
<path fill-rule="evenodd" clip-rule="evenodd" d="M211.911 292.09C209.937 293.458 207.963 294.826 205.989 296.194C205.272 296.691 204.395 297.213 203.569 296.916C200.622 295.857 198.558 293.225 197.186 290.471C196.65 289.393 196.186 288.161 196.564 287.021C196.753 286.449 197.138 285.961 197.516 285.486C198.684 284.018 200.063 282.431 201.959 282.239C202.8 282.154 203.644 282.364 204.435 282.656C206.93 283.578 209.084 285.351 210.433 287.594C209.909 287.399 209.354 287.282 208.794 287.249C207.416 285.066 204.92 283.589 202.295 283.405C202.999 285.002 203.866 286.531 204.878 287.962C205.796 289.261 206.935 290.546 208.494 290.973C209.677 291.296 211.135 291.162 211.911 292.09ZM201.909 294.104C202.868 294.871 204.102 295.514 205.307 295.222C206.984 294.816 207.856 292.796 209.541 292.425C207.294 292.179 205.313 290.783 203.909 289.057C202.504 287.33 201.592 285.281 200.697 283.259C200.572 285.185 198.016 286.421 198.134 288.347C198.156 288.702 198.272 289.045 198.404 289.377C199.13 291.211 200.35 292.857 201.909 294.104H201.909Z" fill="#00160A"/>
<path fill-rule="evenodd" clip-rule="evenodd" d="M88.9466 77.4608C89.3936 77.2026 89.9586 77.4466 90.4117 77.6946C91.8026 78.4561 93.1665 79.2642 94.5003 80.1172C94.7638 80.2857 95.063 80.5575 94.9487 80.8437C94.8024 81.2102 94.2398 81.073 93.8922 80.873C92.4995 80.0716 91.1068 79.2703 89.7141 78.4689C89.319 78.2416 88.8663 77.9008 88.9466 77.4608L88.9466 77.4608Z" fill="#00160A"/>
<path fill-rule="evenodd" clip-rule="evenodd" d="M61.7441 65.9436C62.5621 63.6981 63.8308 61.6092 65.4574 59.8296C66.0282 59.205 66.6417 58.619 67.2547 58.0335C68.1454 57.1829 69.036 56.3322 69.9267 55.4816C70.1745 55.2449 70.4657 54.9912 70.8123 55.0087C71.254 55.031 71.5489 55.5146 71.5137 55.944C71.4785 56.3734 71.2101 56.7473 70.939 57.0877C69.5557 58.8244 67.8642 60.3028 66.3667 61.9472C64.8691 63.5917 63.5343 65.4721 63.0814 67.6255C62.96 68.2025 61.9825 68.1608 61.6784 67.6517C61.3743 67.1425 61.5419 66.4987 61.7441 65.9436Z" fill="#FFB61D"/>
<path fill-rule="evenodd" clip-rule="evenodd" d="M227.528 337.399C227.989 335.453 228.956 333.623 230.313 332.126C230.908 332.875 230.224 333.907 229.716 334.715C229.305 335.367 229.004 336.085 228.828 336.831C228.776 337.051 228.735 337.283 228.796 337.501C228.848 337.684 228.967 337.84 229.083 337.992C231.09 340.603 233.393 343.404 236.677 344.042C237.323 344.168 237.99 343.834 238.425 343.354C238.861 342.874 239.111 342.264 239.353 341.668C235.354 340.119 232.271 336.506 231.439 332.394C231.405 332.228 231.376 332.051 231.438 331.894C231.524 331.675 231.76 331.552 231.983 331.462C233.569 330.824 235.451 330.928 236.953 331.737C237.536 332.05 238.057 332.459 238.575 332.866C239.378 333.497 240.181 334.127 240.983 334.758C242.304 335.795 243.758 337.127 243.576 338.77C243.476 339.673 242.884 340.443 242.315 341.162C241.071 342.731 239.828 344.301 238.585 345.87C234.234 345.32 230.188 342.8 227.849 339.184C227.672 338.911 227.501 338.623 227.448 338.303C227.398 338.003 227.457 337.695 227.528 337.399ZM236.855 333.309C235.487 332.54 233.864 332.209 232.294 332.38C233.474 335.494 235.79 338.185 238.732 339.86C239.452 340.27 240.331 340.627 241.096 340.303C242.08 339.886 242.307 338.608 243.104 337.906C241.567 336.748 240.03 335.591 238.494 334.433C237.965 334.035 237.434 333.635 236.855 333.309Z" fill="#00160A"/>
<path fill-rule="evenodd" clip-rule="evenodd" d="M185.219 265.101C187.312 263.892 190.114 264.94 191.765 266.681C193.416 268.422 194.29 270.709 195.512 272.758C195.28 272.85 195.048 272.943 194.815 273.035C193.647 269.994 191.612 267.274 188.997 265.26C188.569 264.93 187.768 264.723 187.627 265.236C187.587 265.383 187.632 265.538 187.677 265.684C187.941 266.533 188.204 267.381 188.467 268.23C188.628 268.751 188.791 269.274 189.034 269.765C189.919 271.551 191.744 272.683 193.479 273.722C193.88 273.961 193.627 274.587 193.248 274.858C192.869 275.128 192.362 275.332 192.248 275.776C192.094 273.961 190.04 272.979 188.927 271.515C188.522 270.983 188.239 270.374 187.959 269.77C187.366 268.492 186.772 267.214 186.179 265.937C185.447 266.623 184.714 267.31 183.981 267.996C183.641 268.315 183.291 268.649 183.129 269.081C182.9 269.692 183.094 270.374 183.348 270.975C183.823 272.097 184.509 273.135 185.361 274.02C185.881 274.561 186.469 275.052 186.869 275.683C187.269 276.313 187.452 277.14 187.096 277.794C185.148 276.222 183.505 274.294 182.279 272.139C181.8 271.297 181.375 270.377 181.421 269.416C181.517 267.439 183.472 266.111 185.219 265.101V265.101Z" fill="#00160A"/>
<path fill-rule="evenodd" clip-rule="evenodd" d="M29.6282 322.979C27.1421 326.472 24.2537 330.019 20.1508 331.465C16.0479 332.911 10.5147 331.25 9.40287 327.14C7.54391 320.269 17.7895 316.757 21.6171 310.707C26.1599 303.527 20.7144 294.459 15.3634 287.828C11.5664 290.919 6.036 294.097 2.12544 291.143C-2.61001 287.565 1.37476 280.087 6.20385 276.631C14.8651 270.431 25.9415 267.52 36.6287 268.634C39.3493 248.895 49.7592 230.255 65.2931 217.306C80.8271 204.357 101.342 197.218 121.783 197.649C119.498 159.043 142.477 120.111 177.878 102.608C181.721 100.708 185.835 99.0124 190.144 99.0376C194.454 99.0628 199.004 101.199 200.639 105.083C202.275 108.967 199.739 114.297 195.445 114.651C178.91 116.017 163.206 124.99 153.913 138.382C175.906 136.732 196.716 147.234 216.134 157.428C224.046 161.582 231.959 165.737 239.871 169.891C247.554 173.924 256.077 178.09 264.615 176.33C280.405 173.075 285.215 152.925 298.433 143.903C300.134 142.741 302.16 141.738 304.207 142.081C309.544 142.974 309.17 150.651 306.874 155.429C293.181 183.925 262.503 201.857 230.968 208.668C199.432 215.478 166.653 212.786 134.473 210.06C132.247 232.477 129.102 256.856 112.635 272.668C96.9806 287.7 72.2188 291.005 51.0256 285.318C62.2999 286.127 73.7186 286.75 84.8399 284.773C95.9612 282.797 106.906 277.961 114.132 269.494C118.458 264.425 121.27 258.304 123.631 252.127C128.736 238.774 131.985 224.749 133.261 210.554C129.323 210.814 125.385 211.074 121.446 211.334C122.444 230.237 117.612 250.222 104.258 263.973C90.905 277.724 67.9542 283.336 51.2069 273.736C47.5307 291.346 40.14 308.212 29.6282 322.979ZM72.4926 276.873C79.0031 275.882 85.3682 273.99 91.3364 271.269C87.639 268.395 84.0688 265.301 81.2528 261.599C75.2563 253.715 72.9846 243.495 66.4535 236.025C58.6103 246.619 53.4693 259.097 51.6174 272.033C51.5756 272.325 51.5413 272.644 51.7032 272.893C51.8712 273.15 52.1992 273.253 52.501 273.337C57.4917 274.716 62.5645 275.813 67.6853 276.622C64.8449 273.613 61.9837 270.577 59.8231 267.072C57.6626 263.567 56.2254 259.516 56.5067 255.438C59.168 262.226 62.9741 268.588 67.7261 274.189C68.952 275.634 70.5912 277.162 72.4926 276.873ZM308.089 149.579C309.563 146.034 304.537 142.649 300.785 143.778C297.034 144.907 294.709 148.439 292.522 151.616C280.258 169.43 262.385 183.527 241.945 191.506C210.461 203.797 175.281 201.349 141.391 200.002C125.457 199.368 109.195 199.06 93.9133 203.503C71.6637 209.971 52.87 226.851 44.4494 247.928C39.5877 260.097 38.0919 273.257 34.7662 285.907C31.4405 298.557 25.7619 311.377 14.9372 319.081C12.9735 320.478 10.6972 321.915 10.1512 324.223C9.33948 327.655 13.2594 330.77 16.8673 330.545C20.4753 330.319 23.5033 327.867 25.9793 325.301C51.149 299.216 45.3735 254.105 71.3568 228.789C83.6084 216.851 101.2 211.416 118.461 209.925C135.723 208.435 153.069 210.467 170.376 211.314C197.338 212.634 224.945 210.964 250.13 201.496C275.314 192.027 297.955 173.951 308.089 149.579ZM145.197 156.79C144.641 157.12 144.308 157.705 144.007 158.267C137.649 170.146 134.506 183.639 134.977 197.027C134.295 196.995 134.028 196.16 133.957 195.499C132.278 179.907 138.932 164.736 145.441 150.397C147.413 146.054 149.399 141.685 152.12 137.744C157.189 130.401 164.563 124.885 172.074 119.907C174.574 118.25 177.141 116.62 180.005 115.676C181.911 115.048 183.908 114.737 185.895 114.429C188.369 114.045 190.843 113.661 193.316 113.277C195.885 112.879 198.827 112.227 199.998 109.965C201.643 106.787 198.33 103.086 194.812 102.127C190.375 100.918 185.647 102.157 181.306 103.662C174.654 105.97 168.198 108.941 162.504 113.009C157.96 116.254 153.948 120.162 150.267 124.318C132.903 143.921 122.807 169.506 122.221 195.391C122.208 195.981 122.205 196.598 122.482 197.123C123.147 198.381 124.934 198.446 126.383 198.357C136.726 197.725 147.136 198.112 157.399 199.512C152.388 194.906 147.292 190.241 141.19 187.125C139.258 186.138 137.109 185.201 136.045 183.346C140.24 184.005 144.248 185.763 147.537 188.385C150.186 190.497 152.347 193.133 154.924 195.328C157.502 197.523 160.701 199.321 164.123 199.216C173.718 198.923 183.327 199.091 192.905 199.72C185.264 194.767 178.965 188.129 172.054 182.245C165.143 176.361 157.221 171.058 148.154 169.665C145.624 169.277 142.441 168.732 141.807 166.315C151.379 166.812 160.353 171.163 168.089 176.678C175.824 182.193 182.574 188.894 189.858 194.964C192.459 197.132 195.544 199.345 198.943 198.948C209.59 197.702 220.32 196.439 230.51 193.183C205.721 184.6 186.144 164.048 160.47 158.454C156.223 157.529 151.891 157.038 147.569 156.549C146.764 156.458 145.89 156.38 145.197 156.79ZM242.848 173.189C240.023 171.855 237.199 170.521 234.375 169.188C230.341 167.283 226.307 165.378 222.331 163.36C213.074 158.661 204.142 153.351 194.719 148.976C185.295 144.602 175.256 141.149 164.84 140.469C162.19 140.296 159.498 140.299 156.94 139.608C155.339 139.175 153.597 139.902 152.416 141.041C151.236 142.18 150.505 143.676 149.798 145.141C148.221 148.405 146.643 151.669 145.066 154.933C157.22 153.828 169.174 158.261 180.097 163.567C190.445 168.594 200.338 174.47 209.962 180.713C214.33 183.546 218.676 186.473 223.481 188.529C228.285 190.586 233.647 191.738 238.811 190.829C247.661 189.271 254.336 182.109 262.75 179.014C255.754 179.204 249.145 176.162 242.848 173.189ZM83.161 222.455C85.8073 228.827 89.559 234.82 94.5765 239.654C99.5939 244.489 105.917 248.129 112.82 249.56C114.428 243.831 115.966 238.083 117.435 232.319C117.574 231.773 117.635 231.048 117.12 230.792C109.744 227.139 103.106 222.078 97.6922 215.981C97.7388 215.348 98.5193 214.971 99.1595 215.089C99.7997 215.207 100.313 215.659 100.786 216.095C106.065 220.946 111.258 226.231 117.995 228.86C119.524 223.964 120.566 218.924 121.099 213.833C121.197 212.896 120.961 211.589 119.994 211.586C100.927 211.517 81.956 219.249 68.6223 232.526C67.6979 233.446 67.6434 234.944 68.1092 236.149C68.575 237.354 69.4653 238.348 70.2881 239.356C74.2994 244.269 77.0175 250.037 80.1866 255.503C83.3557 260.969 87.1652 266.327 92.6302 269.654C93.1935 269.997 93.8179 270.327 94.4803 270.278C95.0249 270.238 95.5116 269.945 95.9684 269.653C102.486 265.491 107.932 259.75 111.677 253.093C112.083 252.371 112.269 251.168 111.444 250.994C106.432 249.934 101.674 247.755 97.6399 244.671C94.5241 242.289 91.8624 239.4 89.2183 236.528C87.6009 234.77 85.9731 233 84.7242 230.977C83.2221 228.545 82.2997 225.775 82.0497 222.947C82.4201 222.783 82.7905 222.619 83.161 222.455ZM4.82578 290.844C7.53221 291.392 10.1033 289.603 12.2107 287.861C14.6549 285.839 17.0497 283.722 19.8276 282.162C22.6055 280.603 25.856 279.625 29.0232 280.112C30.0983 280.277 31.1646 280.608 32.2499 280.53C33.3353 280.451 34.4884 279.806 34.6762 278.762C35.122 276.283 35.4733 273.787 35.7292 271.282C35.7658 270.924 35.7868 270.522 35.5456 270.251C35.3123 269.988 34.9177 269.942 34.5617 269.92C23.2555 269.21 11.7173 273.511 3.78622 281.391C2.58383 282.586 1.41493 283.95 1.13503 285.6C0.743425 287.91 2.47307 290.367 4.82578 290.844ZM27.6378 283.558C29.157 285.264 30.6762 286.97 32.1954 288.676C32.5949 286.582 33.2271 284.53 34.0774 282.568C29.5439 280.712 24.0505 281.283 20.0211 284.029C19.1443 284.626 18.3379 285.315 17.5335 286.003C17.2143 286.276 16.882 286.567 16.7463 286.959C16.6106 287.351 16.7587 287.869 17.1618 287.999C18.6608 288.483 19.7243 289.768 20.5816 291.06C23.3954 295.3 24.939 300.33 24.976 305.379C27.1326 300.959 29.2892 296.54 31.4458 292.121C30.5896 291.887 30.3694 290.839 30.155 289.999C29.3938 287.015 26.9373 284.771 24.5961 282.709C24.9615 282.234 25.7029 282.174 26.2616 282.41C26.8202 282.647 27.2386 283.109 27.6378 283.558V283.558Z" fill="#00160A"/>
</svg>
