<svg width="20" height="20" viewBox="0 0 20 20" fill="none" xmlns="http://www.w3.org/2000/svg">
<path d="M11.9666 11.8582C11.4096 12.3073 10.7155 12.5522 9.99996 12.5522C9.28439 12.5522 8.59036 12.3073 8.0333 11.8582C7.86312 11.7167 7.64371 11.6487 7.42336 11.669C7.203 11.6893 6.99975 11.7963 6.8583 11.9665C6.71685 12.1367 6.6488 12.3561 6.66911 12.5764C6.68943 12.7968 6.79645 13.0001 6.96663 13.1415C7.81774 13.852 8.89126 14.2412 9.99996 14.2412C11.1087 14.2412 12.1822 13.852 13.0333 13.1415C13.2035 13.0001 13.3105 12.7968 13.3308 12.5764C13.3511 12.3561 13.2831 12.1367 13.1416 11.9665C13.0716 11.8822 12.9856 11.8126 12.8887 11.7615C12.7917 11.7105 12.6857 11.679 12.5766 11.669C12.3562 11.6487 12.1368 11.7167 11.9666 11.8582ZM7.49996 9.1665C7.66478 9.1665 7.8259 9.11763 7.96294 9.02606C8.09998 8.93449 8.20679 8.80435 8.26986 8.65207C8.33294 8.4998 8.34944 8.33225 8.31728 8.1706C8.28513 8.00894 8.20576 7.86046 8.08922 7.74392C7.97267 7.62737 7.82419 7.548 7.66254 7.51585C7.50089 7.4837 7.33333 7.5002 7.18106 7.56327C7.02879 7.62634 6.89864 7.73315 6.80707 7.8702C6.7155 8.00724 6.66663 8.16835 6.66663 8.33317C6.66663 8.55418 6.75443 8.76615 6.91071 8.92243C7.06699 9.07871 7.27895 9.1665 7.49996 9.1665ZM12.5 7.49984C12.3351 7.49984 12.174 7.54871 12.037 7.64028C11.8999 7.73185 11.7931 7.862 11.7301 8.01427C11.667 8.16654 11.6505 8.3341 11.6826 8.49575C11.7148 8.6574 11.7942 8.80588 11.9107 8.92243C12.0273 9.03897 12.1757 9.11834 12.3374 9.15049C12.499 9.18265 12.6666 9.16614 12.8189 9.10307C12.9711 9.04 13.1013 8.93319 13.1929 8.79615C13.2844 8.65911 13.3333 8.49799 13.3333 8.33317C13.3333 8.11216 13.2455 7.9002 13.0892 7.74392C12.9329 7.58764 12.721 7.49984 12.5 7.49984ZM9.99996 1.6665C8.35179 1.6665 6.74062 2.15525 5.37021 3.07092C3.9998 3.9866 2.9317 5.28809 2.30097 6.81081C1.67024 8.33353 1.50521 10.0091 1.82675 11.6256C2.1483 13.2421 2.94197 14.727 4.10741 15.8924C5.27284 17.0578 6.7577 17.8515 8.37421 18.173C9.99072 18.4946 11.6663 18.3296 13.189 17.6988C14.7117 17.0681 16.0132 16 16.9289 14.6296C17.8446 13.2592 18.3333 11.648 18.3333 9.99984C18.3333 8.90549 18.1177 7.82186 17.699 6.81081C17.2802 5.79976 16.6663 4.8811 15.8925 4.10728C15.1187 3.33346 14.2 2.71963 13.189 2.30084C12.1779 1.88205 11.0943 1.6665 9.99996 1.6665ZM9.99996 16.6665C8.68142 16.6665 7.39249 16.2755 6.29616 15.543C5.19983 14.8104 4.34535 13.7692 3.84077 12.5511C3.33618 11.3329 3.20416 9.99244 3.46139 8.69924C3.71863 7.40603 4.35357 6.21814 5.28592 5.28579C6.21827 4.35344 7.40615 3.7185 8.69936 3.46127C9.99257 3.20403 11.333 3.33606 12.5512 3.84064C13.7694 4.34522 14.8105 5.19971 15.5431 6.29604C16.2756 7.39236 16.6666 8.6813 16.6666 9.99984C16.6666 11.7679 15.9643 13.4636 14.714 14.7139C13.4638 15.9641 11.7681 16.6665 9.99996 16.6665Z" fill="#9E9E9E"/>
</svg>
