<svg width="18" height="21" viewBox="0 0 18 21" fill="none" xmlns="http://www.w3.org/2000/svg">
<path fill-rule="evenodd" clip-rule="evenodd" d="M8.99996 0C8.11282 0 6.6304 0.341377 5.23541 0.7214C3.80827 1.10786 2.36957 1.56518 1.52357 1.84215C1.16986 1.95918 0.856276 2.17382 0.61884 2.46139C0.381403 2.74897 0.229747 3.09782 0.181292 3.46787C-0.58499 9.23521 1.19314 13.5095 3.35056 16.3371C4.26545 17.5467 5.3563 18.6119 6.58669 19.4971C7.08297 19.8488 7.54325 20.118 7.93411 20.3023C8.29411 20.4723 8.68111 20.6114 8.99996 20.6114C9.31882 20.6114 9.70453 20.4723 10.0658 20.3023C10.537 20.0728 10.9878 19.8034 11.4132 19.4971C12.6436 18.6119 13.7345 17.5467 14.6494 16.3371C16.8068 13.5095 18.5849 9.23521 17.8186 3.46787C17.7703 3.09764 17.6186 2.74859 17.3812 2.46079C17.1438 2.17299 16.8302 1.95812 16.4764 1.84086C15.2483 1.43741 14.0106 1.06372 12.7645 0.720112C11.3695 0.342665 9.8871 0 8.99996 0ZM8.99996 6.44107C9.45541 6.44039 9.8964 6.60123 10.2448 6.89512C10.5933 7.189 10.8266 7.59695 10.9036 8.04672C10.9806 8.49648 10.8963 8.95904 10.6655 9.35246C10.4347 9.74588 10.0725 10.0448 9.64281 10.1962L10.1378 12.7598C10.1558 12.853 10.153 12.9491 10.1296 13.0411C10.1062 13.1331 10.0628 13.2189 10.0025 13.2921C9.94217 13.3654 9.86642 13.4243 9.78068 13.4648C9.69493 13.5053 9.60131 13.5263 9.50653 13.5262H8.49339C8.39871 13.5261 8.30524 13.505 8.21966 13.4644C8.13407 13.4238 8.05849 13.3648 7.9983 13.2916C7.93811 13.2184 7.89481 13.1327 7.87149 13.0408C7.84817 12.9489 7.84541 12.8529 7.86339 12.7598L8.35711 10.1962C7.92747 10.0448 7.56518 9.74588 7.33441 9.35246C7.10364 8.95904 7.01929 8.49648 7.09629 8.04672C7.17328 7.59695 7.40666 7.189 7.75509 6.89512C8.10352 6.60123 8.54451 6.44039 8.99996 6.44107Z" fill="#0EBE7E"/>
</svg>
