<svg width="18" height="21" viewBox="0 0 18 21" fill="none" xmlns="http://www.w3.org/2000/svg">
<path fill-rule="evenodd" clip-rule="evenodd" d="M8.99996 0C8.11282 0 6.6304 0.340713 5.23541 0.719996C3.80827 1.10571 2.36957 1.56213 1.52357 1.83856C1.16986 1.95537 0.856276 2.16959 0.61884 2.4566C0.381403 2.74362 0.229747 3.09179 0.181292 3.46112C-0.58499 9.21724 1.19314 13.4832 3.35056 16.3053C4.26545 17.5126 5.3563 18.5757 6.58669 19.4592C7.08297 19.8102 7.54325 20.0789 7.93411 20.2628C8.29411 20.4325 8.68111 20.5713 8.99996 20.5713C9.31882 20.5713 9.70453 20.4325 10.0658 20.2628C10.537 20.0337 10.9878 19.7649 11.4132 19.4592C12.6436 18.5757 13.7345 17.5126 14.6494 16.3053C16.8068 13.4832 18.5849 9.21724 17.8186 3.46112C17.7703 3.09161 17.6186 2.74324 17.3812 2.456C17.1438 2.16876 16.8302 1.95431 16.4764 1.83728C15.2483 1.43461 14.0106 1.06165 12.7645 0.718711C11.3695 0.341998 9.8871 0 8.99996 0ZM8.99996 6.42854C9.45541 6.42786 9.8964 6.58839 10.2448 6.8817C10.5933 7.17501 10.8266 7.58217 10.9036 8.03106C10.9806 8.47995 10.8963 8.94161 10.6655 9.33427C10.4347 9.72692 10.0725 10.0252 9.64281 10.1764L10.1378 12.7349C10.1558 12.828 10.153 12.9239 10.1296 13.0157C10.1062 13.1076 10.0628 13.1931 10.0025 13.2662C9.94217 13.3393 9.86642 13.3982 9.78068 13.4386C9.69493 13.479 9.60131 13.4999 9.50653 13.4999H8.49339C8.39871 13.4998 8.30524 13.4787 8.21966 13.4382C8.13407 13.3977 8.05849 13.3388 7.9983 13.2657C7.93811 13.1927 7.89481 13.1072 7.87149 13.0154C7.84817 12.9237 7.84541 12.8279 7.86339 12.7349L8.35711 10.1764C7.92747 10.0252 7.56518 9.72692 7.33441 9.33427C7.10364 8.94161 7.01929 8.47995 7.09629 8.03106C7.17328 7.58217 7.40666 7.17501 7.75509 6.8817C8.10352 6.58839 8.54451 6.42786 8.99996 6.42854Z" fill="#0EBE7E"/>
</svg>
