<svg width="19" height="19" viewBox="0 0 19 19" fill="none" xmlns="http://www.w3.org/2000/svg">
<path d="M17.7744 19.0001C7.66348 19.0143 -0.0106556 11.2338 1.11061e-05 1.19107C1.11061e-05 0.534377 0.530979 0 1.18521 0H4.31412C4.90079 0 5.39976 0.432252 5.48628 1.01413C5.69262 2.40951 6.09774 3.76801 6.68925 5.04809L6.81133 5.31171C6.89333 5.48911 6.91097 5.68963 6.8612 5.87866C6.81144 6.0677 6.69739 6.23342 6.53873 6.34722C5.56924 7.04072 5.19946 8.43604 5.95443 9.52379C6.9014 10.8894 8.09489 12.0864 9.45787 13.0352C10.5447 13.7905 11.9373 13.42 12.6283 12.4498C12.7417 12.2904 12.9073 12.1757 13.0962 12.1256C13.2851 12.0755 13.4856 12.0931 13.6629 12.1755L13.9249 12.2966C15.2025 12.8904 16.5584 13.2965 17.951 13.5031C18.5317 13.5898 18.9631 14.0897 18.9631 14.6788V17.8126C18.9631 17.9686 18.9324 18.1231 18.8728 18.2673C18.8132 18.4114 18.7258 18.5424 18.6156 18.6527C18.5054 18.763 18.3746 18.8504 18.2307 18.91C18.0867 18.9696 17.9325 19.0002 17.7768 19.0001H17.7744Z" fill="#0EBE7E"/>
</svg>
