<svg width="21" height="21" viewBox="0 0 21 21" fill="none" xmlns="http://www.w3.org/2000/svg">
<path d="M10.4999 0C4.70396 0 0 4.70396 0 10.4999C0 16.2959 4.70396 20.9998 10.4999 20.9998H15.7499V18.8999H10.4999C5.94295 18.8999 2.09998 15.0569 2.09998 10.4999C2.09998 5.94295 5.94295 2.09998 10.4999 2.09998C15.0569 2.09998 18.8998 5.94295 18.8998 10.4999V12.0014C18.8998 12.8309 18.1544 13.6499 17.3249 13.6499C16.4954 13.6499 15.7499 12.8309 15.7499 12.0014V10.4999C15.7499 7.60194 13.3979 5.24996 10.4999 5.24996C7.60194 5.24996 5.24996 7.60194 5.24996 10.4999C5.24996 13.3979 7.60194 15.7499 10.4999 15.7499C11.9489 15.7499 13.2719 15.1619 14.2169 14.2064C14.8994 15.1409 16.0754 15.7499 17.3249 15.7499C19.3933 15.7499 20.9998 14.0699 20.9998 12.0014V10.4999C20.9998 4.70396 16.2959 0 10.4999 0ZM10.4999 13.6499C8.75693 13.6499 7.34994 12.2429 7.34994 10.4999C7.34994 8.75693 8.75693 7.34994 10.4999 7.34994C12.2429 7.34994 13.6499 8.75693 13.6499 10.4999C13.6499 12.2429 12.2429 13.6499 10.4999 13.6499Z" fill="#0EBE7E"/>
</svg>
