<svg width="20" height="20" viewBox="0 0 20 20" fill="none" xmlns="http://www.w3.org/2000/svg">
<g clip-path="url(#clip0_907_4696)">
<path d="M7.2915 14.6768V18.5418C7.2915 18.8118 7.46484 19.0509 7.7215 19.1359C7.78567 19.1568 7.8515 19.1668 7.9165 19.1668C8.1115 19.1668 8.29984 19.0751 8.41984 18.9118L10.6807 15.8351L7.2915 14.6768Z" fill="white"/>
<path d="M19.737 0.114442C19.5454 -0.021391 19.2937 -0.0397243 19.0854 0.0694423L0.335382 9.86111C0.113715 9.97694 -0.0171179 10.2136 0.00121545 10.4628C0.0203821 10.7128 0.186215 10.9261 0.422049 11.0069L5.63455 12.7886L16.7354 3.29694L8.14538 13.6461L16.8812 16.6319C16.9462 16.6536 17.0145 16.6653 17.0829 16.6653C17.1962 16.6653 17.3087 16.6344 17.4079 16.5744C17.5662 16.4778 17.6737 16.3153 17.7012 16.1328L19.9929 0.716109C20.0271 0.482776 19.9287 0.251109 19.737 0.114442Z" fill="white"/>
</g>
<defs>
<clipPath id="clip0_907_4696">
<rect width="20" height="20" fill="white"/>
</clipPath>
</defs>
</svg>
