<?xml version="1.0" standalone="no"?>
<!DOCTYPE svg PUBLIC "-//W3C//DTD SVG 20010904//EN"
 "http://www.w3.org/TR/2001/REC-SVG-20010904/DTD/svg10.dtd">
<svg version="1.0" xmlns="http://www.w3.org/2000/svg"
 width="512.000000pt" height="512.000000pt" viewBox="0 0 512.000000 512.000000"
 preserveAspectRatio="xMidYMid meet">

<g transform="translate(0.000000,512.000000) scale(0.100000,-0.100000)"
fill="#000000" stroke="none">
<path d="M1235 4941 c-33 -9 -85 -30 -115 -46 -79 -42 -188 -155 -227 -236
-30 -62 -35 -67 -99 -99 -124 -61 -236 -198 -277 -336 -8 -29 -18 -97 -22
-153 l-8 -101 -131 2 c-158 4 -206 -8 -256 -61 -50 -53 -89 -138 -96 -207 -12
-115 61 -237 169 -285 43 -19 74 -23 184 -27 l133 -4 0 -139 0 -139 -125 0
c-150 0 -211 -18 -276 -83 -61 -61 -84 -116 -84 -207 1 -89 29 -154 93 -212
65 -59 133 -78 272 -78 l120 0 0 -139 0 -139 -138 -4 c-118 -3 -143 -6 -183
-26 -220 -108 -223 -406 -5 -520 47 -24 63 -27 189 -30 l137 -4 0 -138 0 -138
-137 -4 c-156 -4 -201 -18 -264 -81 -60 -62 -84 -121 -84 -207 0 -87 23 -145
82 -203 67 -68 110 -82 264 -85 l136 -4 7 -99 c4 -54 14 -122 22 -151 55 -185
210 -335 399 -383 52 -13 237 -15 1440 -15 1511 1 1436 -2 1556 61 86 45 195
155 236 239 30 61 37 67 100 99 93 47 197 153 242 246 37 77 60 185 61 286 l0
66 62 23 c100 36 160 105 247 280 61 123 71 151 70 194 -1 106 -70 204 -162
231 -28 8 -88 15 -134 15 l-83 0 0 128 0 129 42 12 c110 33 171 97 260 276 54
110 72 156 76 197 8 98 -54 196 -147 235 -20 8 -79 18 -133 21 l-98 5 0 121 0
121 177 -3 c212 -4 271 2 315 31 48 32 81 101 74 156 -8 62 -40 98 -161 182
-107 75 -129 104 -108 138 6 9 52 46 104 83 115 83 156 125 165 173 8 44 -8
102 -38 140 -39 50 -68 55 -302 55 l-214 0 -5 28 c-3 15 -6 92 -6 170 -1 179
-12 245 -62 351 -68 146 -201 254 -364 296 -52 13 -236 15 -1445 14 -1280 0
-1390 -2 -1445 -18z m2913 -166 c76 -36 90 -49 45 -40 -27 5 -27 5 -5 -5 13
-5 28 -7 34 -4 14 9 95 -73 119 -118 22 -43 25 -61 5 -35 -12 16 -14 16 -20 2
-3 -10 -2 -14 5 -10 6 4 13 -3 16 -15 4 -14 8 -18 13 -10 23 36 58 -257 45
-375 l-6 -61 -77 -2 c-104 -2 -109 0 -121 58 -11 50 -6 84 10 74 5 -3 9 -3 9
1 0 3 -11 10 -25 15 -14 5 -25 17 -25 28 0 10 -5 23 -12 30 -7 7 -9 12 -4 12
4 0 1 7 -7 15 -9 8 -13 23 -10 33 2 10 -3 24 -11 31 -9 8 -16 10 -16 6 0 -4
-7 -2 -15 5 -8 7 -12 17 -8 23 3 5 1 7 -4 4 -6 -4 -20 7 -31 24 -10 17 -22 30
-26 29 -4 0 -21 11 -39 24 -18 14 -28 26 -23 26 5 0 19 -8 30 -17 21 -18 21
-18 3 3 -9 11 -14 24 -10 29 5 4 -2 2 -14 -4 -19 -10 -31 -7 -75 15 -29 15
-56 31 -59 36 -3 5 -13 6 -22 2 -9 -3 -17 -2 -17 3 0 9 -24 13 -92 15 -15 1
-26 4 -24 7 2 3 -587 5 -1310 4 -737 -2 -1314 1 -1314 6 0 19 70 84 94 86 13
2 33 8 43 14 23 13 8 14 -18 1 -10 -6 -19 -8 -19 -6 0 7 97 57 130 67 14 4
646 8 1405 8 l1381 1 72 -35z m-2420 -313 c373 1 657 5 632 8 -25 4 255 8 623
8 472 2 667 -1 667 -9 0 -7 11 -8 29 -4 33 7 134 -23 186 -55 44 -27 127 -119
148 -162 49 -103 47 -33 47 -1863 0 -942 -3 -1715 -7 -1719 -4 -4 -8 -21 -9
-37 -4 -76 -124 -247 -164 -234 -10 3 -21 1 -25 -4 -4 -7 1 -8 11 -4 11 4 15
3 11 -4 -4 -6 -40 -25 -80 -41 l-72 -30 -1385 1 -1385 2 -70 33 c-55 26 -67
35 -55 43 12 8 10 9 -6 4 -17 -4 -31 5 -64 42 -65 73 -103 157 -104 224 -1 32
-4 55 -8 52 -5 -2 -8 19 -8 46 l0 51 64 0 c36 0 68 4 71 10 3 5 17 10 30 10
13 0 27 5 30 10 4 6 16 8 28 5 12 -2 16 -2 9 1 -8 4 0 17 25 39 21 18 42 31
47 28 5 -4 7 0 4 8 -3 8 2 31 12 52 14 28 18 58 16 131 0 52 2 89 6 83 5 -8 8
-6 8 6 0 9 -4 17 -10 17 -5 0 -16 13 -25 30 -18 34 -19 44 -4 34 8 -4 8 -1 1
12 -5 11 -7 25 -4 33 3 8 0 11 -7 7 -6 -4 -28 6 -48 21 -21 15 -32 20 -24 10
16 -21 -1 -23 -22 -2 -8 8 -18 11 -21 7 -4 -3 -9 4 -13 16 -3 12 -9 19 -14 16
-5 -3 -7 -10 -4 -15 8 -12 -2 -11 -28 2 -12 7 -45 11 -74 10 l-53 -2 0 116 c0
85 3 115 13 116 9 0 9 2 0 6 -7 2 -13 12 -13 22 0 13 16 19 83 28 45 6 101 10
125 8 28 -2 41 1 39 9 -5 12 -9 12 -47 1 -16 -4 -8 4 21 23 25 16 55 41 66 56
12 14 23 23 25 19 3 -5 3 -3 2 4 -3 13 11 66 25 93 4 8 4 51 0 95 -3 44 -4 84
-1 89 3 5 0 6 -6 2 -12 -7 -17 10 -14 49 1 13 -1 16 -6 8 -5 -8 -13 -3 -26 16
-11 16 -39 39 -62 52 -24 13 -39 26 -34 29 5 3 -8 6 -28 6 -20 0 -46 3 -57 8
-11 5 -39 8 -62 7 -28 -2 -43 2 -43 10 0 8 12 10 39 5 28 -4 40 -2 44 8 7 18
-1 26 -27 25 -18 -1 -18 -2 4 -9 21 -7 17 -8 -20 -9 -32 0 -41 2 -30 9 10 6
11 10 3 10 -10 0 -13 27 -13 99 0 70 4 101 13 104 9 4 8 8 -3 16 -12 9 -8 11
20 10 19 -1 62 7 95 16 33 10 71 18 85 19 14 1 24 7 23 14 -2 6 6 16 17 22 48
26 90 130 90 224 0 31 5 56 10 56 6 0 10 5 10 12 0 6 -3 8 -7 4 -9 -9 -45 72
-38 85 4 5 1 16 -5 24 -6 8 -9 18 -7 22 3 5 -4 10 -15 10 -20 2 -20 2 1 -21
37 -40 22 -37 -18 3 -57 57 -140 91 -222 91 l-49 0 0 135 0 135 28 2 c15 1 35
2 44 2 9 0 15 3 13 6 -2 4 19 6 48 4 39 -3 46 -1 27 5 -21 8 -22 9 -5 10 11 1
31 8 43 17 12 8 28 12 35 8 6 -4 9 -4 6 0 -3 3 10 24 30 45 50 53 61 68 54 75
-3 3 0 12 7 20 7 10 12 48 13 99 0 72 -3 91 -28 142 -39 81 -39 82 -24 68 16
-16 29 -17 29 -2 0 5 -4 8 -9 4 -5 -3 -12 -1 -16 5 -4 6 -11 8 -16 5 -5 -4
-24 5 -41 18 -29 21 -62 38 -78 39 -3 0 -14 5 -25 11 -11 6 -47 10 -79 9 l-59
-3 7 78 c9 100 9 100 25 148 37 108 141 214 251 255 45 17 124 27 128 17 2 -4
308 -7 680 -5z m2402 -83 c0 -6 -4 -7 -10 -4 -5 3 -10 11 -10 16 0 6 5 7 10 4
6 -3 10 -11 10 -16z m840 -439 c0 -5 -28 -30 -62 -54 -181 -129 -218 -172
-218 -253 0 -96 40 -149 190 -251 47 -31 85 -64 85 -72 0 -20 -154 -24 -502
-15 l-253 7 0 324 0 324 380 0 c244 0 380 -4 380 -10z m-4210 -141 c95 -54 90
-187 -10 -240 -31 -17 -59 -19 -246 -19 -116 0 -226 3 -244 6 -17 4 -47 21
-66 39 -30 28 -34 38 -34 82 0 69 17 112 54 134 28 17 53 19 270 19 225 0 240
-1 276 -21z m3640 -780 l0 -119 -94 0 -94 0 -1 110 c-1 61 0 114 3 118 2 4 45
8 95 9 l91 2 0 -120z m-3625 -89 c81 -75 69 -181 -25 -232 -32 -17 -55 -19
-271 -16 l-236 3 -35 27 c-80 61 -72 175 15 229 30 18 48 19 279 17 l246 -3
27 -25z m3964 -195 c59 -30 55 -77 -18 -223 -98 -196 -124 -211 -353 -212
l-158 0 0 220 0 219 113 4 c312 8 388 7 416 -8z m-339 -708 l0 -125 -92 2 -93
1 -3 108 c-2 97 -1 107 15 108 17 1 17 2 1 6 -42 11 -11 19 77 22 l95 2 0
-124z m-3642 53 c70 -43 92 -128 49 -191 -42 -64 -65 -69 -317 -69 -194 0
-230 2 -259 18 -99 50 -105 177 -12 239 33 22 41 23 270 23 218 0 239 -2 269
-20z m4003 -359 c16 -16 29 -38 29 -49 0 -22 -103 -231 -139 -281 -13 -18 -42
-44 -65 -59 -39 -26 -47 -27 -189 -29 -81 0 -156 1 -167 4 -19 5 -20 14 -20
224 l0 219 261 0 261 0 29 -29z m-3841 -406 c13 -14 21 -27 18 -30 -2 -3 -17
9 -33 25 -16 17 -24 30 -19 30 6 0 21 -11 34 -25z m-170 -93 c43 -21 80 -75
80 -116 0 -44 -29 -97 -69 -123 -33 -22 -41 -23 -265 -23 -254 0 -277 5 -320
63 -29 39 -29 115 0 154 43 58 67 63 314 63 194 0 230 -2 260 -18z m3649 -134
c0 -35 -7 -79 -14 -98 l-13 -35 -3 45 -2 45 -4 -38 c-3 -21 0 -44 6 -51 13
-15 -2 -66 -31 -108 -10 -14 -18 -29 -18 -33 0 -7 -70 -75 -78 -75 -6 0 28 41
43 52 7 5 6 8 -1 8 -15 0 -54 -47 -54 -65 0 -8 -4 -15 -9 -15 -6 0 -10 90 -11
215 l-1 215 96 0 95 0 -1 -62z"/>
<path d="M4086 4774 c-5 -14 -4 -15 9 -4 17 14 19 20 6 20 -5 0 -12 -7 -15
-16z"/>
<path d="M1230 4766 c0 -2 9 -6 20 -9 11 -3 18 -1 14 4 -5 9 -34 13 -34 5z"/>
<path d="M4105 4760 c-3 -6 1 -12 9 -15 9 -3 23 -7 32 -10 8 -3 12 0 9 5 -3 6
0 10 7 11 7 0 4 4 -7 9 -28 12 -43 12 -50 0z"/>
<path d="M1265 4730 c3 -5 8 -10 11 -10 2 0 4 5 4 10 0 6 -5 10 -11 10 -5 0
-7 -4 -4 -10z"/>
<path d="M4240 4701 c0 -6 4 -13 10 -16 6 -3 7 1 4 9 -7 18 -14 21 -14 7z"/>
<path d="M1096 4671 c-15 -17 -15 -19 -1 -25 10 -3 14 -2 10 5 -4 5 -1 16 5
24 18 22 6 18 -14 -4z"/>
<path d="M4276 4655 c10 -8 23 -15 28 -15 6 0 1 7 -10 15 -10 8 -23 15 -28 15
-6 0 -1 -7 10 -15z"/>
<path d="M3850 4616 c0 -21 17 -29 37 -16 15 9 14 10 -6 4 -15 -4 -21 -2 -17
4 3 6 2 13 -4 17 -5 3 -10 -1 -10 -9z"/>
<path d="M3905 4589 c-4 -6 -5 -12 -2 -15 2 -3 7 2 10 11 7 17 1 20 -8 4z"/>
<path d="M4060 4550 c-9 -6 -10 -10 -3 -10 6 0 15 5 18 10 8 12 4 12 -15 0z"/>
<path d="M4030 4509 c-13 -9 -13 -10 1 -6 9 3 22 0 29 -6 10 -9 12 -9 8 2 -6
20 -20 23 -38 10z"/>
<path d="M4340 4514 c0 -7 7 -25 15 -40 8 -16 15 -24 15 -18 0 7 -7 25 -15 40
-8 16 -15 24 -15 18z"/>
<path d="M4137 4456 c20 -26 27 -28 17 -3 -3 8 -12 18 -20 21 -11 4 -10 0 3
-18z"/>
<path d="M4336 4435 c6 -31 11 -41 18 -34 2 2 -2 18 -10 34 l-14 30 6 -30z"/>
<path d="M4120 4430 c0 -5 5 -10 10 -10 6 0 10 5 10 10 0 6 -4 10 -10 10 -5 0
-10 -4 -10 -10z"/>
<path d="M4145 4360 c-3 -5 -1 -10 4 -10 6 0 11 5 11 10 0 6 -2 10 -4 10 -3 0
-8 -4 -11 -10z"/>
<path d="M4190 4312 c0 -7 -4 -11 -9 -8 -5 4 -7 -3 -4 -14 3 -11 10 -23 15
-26 6 -4 8 2 3 15 -9 30 4 26 16 -5 5 -15 12 -24 15 -21 3 3 1 14 -5 26 -9 16
-8 22 6 30 10 6 13 11 6 11 -6 0 -15 -5 -19 -11 -4 -8 -9 -7 -15 2 -7 11 -9
11 -9 1z"/>
<path d="M4216 4203 c-6 -14 -5 -15 5 -6 7 7 10 15 7 18 -3 3 -9 -2 -12 -12z"/>
<path d="M4268 4143 c7 -3 16 -2 19 1 4 3 -2 6 -13 5 -11 0 -14 -3 -6 -6z"/>
<path d="M4343 4143 c9 -2 25 -2 35 0 9 3 1 5 -18 5 -19 0 -27 -2 -17 -5z"/>
<path d="M4268 4123 c6 -2 18 -2 25 0 6 3 1 5 -13 5 -14 0 -19 -2 -12 -5z"/>
<path d="M990 4450 l-45 -7 42 -1 c23 -1 45 3 48 8 3 6 5 9 3 8 -2 0 -23 -4
-48 -8z"/>
<path d="M3725 4441 c11 -5 36 -11 55 -15 l35 -6 -35 14 c-19 8 -44 15 -55 15
l-20 0 20 -8z"/>
<path d="M3658 4433 c7 -3 16 -2 19 1 4 3 -2 6 -13 5 -11 0 -14 -3 -6 -6z"/>
<path d="M955 4420 c-7 -11 22 -26 32 -16 4 3 -2 6 -13 6 -16 0 -17 2 -4 10 9
6 10 10 3 10 -6 0 -15 -5 -18 -10z"/>
<path d="M864 4412 c-6 -4 -8 -18 -4 -32 6 -24 7 -24 11 8 3 17 5 32 5 32 -1
0 -6 -4 -12 -8z"/>
<path d="M905 4410 c27 -12 43 -12 25 0 -8 5 -22 9 -30 9 -10 0 -8 -3 5 -9z"/>
<path d="M2178 4413 c12 -2 32 -2 45 0 12 2 2 4 -23 4 -25 0 -35 -2 -22 -4z"/>
<path d="M3820 4416 c0 -2 7 -7 16 -10 8 -3 12 -2 9 4 -6 10 -25 14 -25 6z"/>
<path d="M3860 4386 c0 -8 31 -36 41 -36 5 0 0 9 -11 20 -19 19 -30 25 -30 16z"/>
<path d="M820 4369 c0 -5 5 -7 10 -4 6 3 10 8 10 11 0 2 -4 4 -10 4 -5 0 -10
-5 -10 -11z"/>
<path d="M776 4345 c-11 -8 -17 -17 -14 -20 2 -3 13 4 23 15 21 23 18 25 -9 5z"/>
<path d="M3845 4350 c3 -5 8 -10 11 -10 2 0 4 5 4 10 0 6 -5 10 -11 10 -5 0
-7 -4 -4 -10z"/>
<path d="M821 4341 c-9 -6 -6 -10 10 -14 28 -8 34 -3 16 11 -7 6 -19 7 -26 3z"/>
<path d="M3923 4330 c1 -11 9 -23 19 -26 27 -8 22 -27 -4 -19 -22 7 -21 5 4
-19 28 -27 49 -36 29 -12 -6 7 -9 21 -5 30 4 10 0 18 -10 22 -9 3 -14 9 -12
13 2 3 -2 12 -9 18 -11 10 -13 9 -12 -7z"/>
<path d="M782 4300 c0 -14 2 -19 5 -12 2 6 2 18 0 25 -3 6 -5 1 -5 -13z"/>
<path d="M740 4289 c0 -5 5 -7 10 -4 6 3 10 8 10 11 0 2 -4 4 -10 4 -5 0 -10
-5 -10 -11z"/>
<path d="M702 4247 c-6 -12 -13 -33 -16 -47 l-6 -25 11 25 c6 14 15 33 21 43
5 11 8 21 5 23 -2 2 -9 -6 -15 -19z"/>
<path d="M741 4261 c-9 -6 -6 -10 10 -14 28 -8 34 -3 16 11 -7 6 -19 7 -26 3z"/>
<path d="M4001 4240 c0 -8 6 -35 13 -60 8 -25 15 -38 15 -30 0 8 -6 35 -13 60
-8 25 -15 38 -15 30z"/>
<path d="M705 4179 c-4 -6 -5 -12 -2 -15 2 -3 7 2 10 11 7 17 1 20 -8 4z"/>
<path d="M672 4140 c-1 -19 -5 -46 -8 -60 -5 -19 -4 -22 5 -14 8 7 11 30 8 60
-2 37 -4 41 -5 14z"/>
<path d="M4013 4065 c0 -38 2 -53 4 -32 2 20 2 52 0 70 -2 17 -4 1 -4 -38z"/>
<path d="M4032 4105 c0 -16 2 -22 5 -12 2 9 2 23 0 30 -3 6 -5 -1 -5 -18z"/>
<path d="M1850 4069 c0 -5 5 -7 10 -4 6 3 10 8 10 11 0 2 -4 4 -10 4 -5 0 -10
-5 -10 -11z"/>
<path d="M1970 4073 c0 -1 10 -7 21 -14 13 -6 19 -7 15 -1 -3 6 0 12 6 15 7 2
1 4 -14 3 -16 0 -28 -2 -28 -3z"/>
<path d="M2118 4073 c7 -3 16 -2 19 1 4 3 -2 6 -13 5 -11 0 -14 -3 -6 -6z"/>
<path d="M2760 4070 c-9 -6 -10 -10 -3 -10 6 0 15 5 18 10 8 12 4 12 -15 0z"/>
<path d="M2863 4071 c10 -4 18 -11 17 -16 -1 -5 4 -11 12 -13 10 -3 10 -1 -1
6 -11 8 -10 11 4 19 14 8 10 10 -17 10 -22 1 -27 -1 -15 -6z"/>
<path d="M2650 4060 c-8 -5 -10 -10 -5 -10 6 0 17 5 25 10 8 5 11 10 5 10 -5
0 -17 -5 -25 -10z"/>
<path d="M1918 4053 c7 -3 16 -2 19 1 4 3 -2 6 -13 5 -11 0 -14 -3 -6 -6z"/>
<path d="M2102 4051 c-11 -7 -10 -9 3 -14 9 -4 13 -3 10 2 -3 5 3 12 12 14 13
3 14 5 3 6 -8 0 -21 -3 -28 -8z"/>
<path d="M2790 4050 c8 -5 22 -10 30 -10 13 0 13 1 0 10 -8 5 -22 10 -30 10
-13 0 -13 -1 0 -10z"/>
<path d="M1958 4043 c7 -3 16 -2 19 1 4 3 -2 6 -13 5 -11 0 -14 -3 -6 -6z"/>
<path d="M2143 4036 c-9 -11 -9 -15 0 -19 7 -3 14 3 14 14 2 22 2 22 -14 5z"/>
<path d="M2656 4035 c-29 -22 -15 -25 19 -4 17 11 23 19 15 19 -8 -1 -24 -7
-34 -15z"/>
<path d="M2854 4036 c11 -9 24 -16 30 -16 12 0 7 5 -24 19 -24 11 -24 11 -6
-3z"/>
<path d="M1890 4019 c0 -5 5 -7 10 -4 6 3 10 8 10 11 0 2 -4 4 -10 4 -5 0 -10
-5 -10 -11z"/>
<path d="M810 3990 c0 -5 5 -10 10 -10 6 0 10 5 10 10 0 6 -4 10 -10 10 -5 0
-10 -4 -10 -10z"/>
<path d="M1847 3984 c2 -7 -7 -20 -20 -29 -21 -13 -44 -45 -34 -45 2 0 22 19
45 43 33 34 38 43 23 43 -11 0 -17 -6 -14 -12z"/>
<path d="M2180 3996 c0 -2 8 -10 18 -17 15 -13 16 -12 3 4 -13 16 -21 21 -21
13z"/>
<path d="M2604 3979 c-19 -22 -19 -22 4 -8 12 8 22 17 22 21 0 12 -6 9 -26
-13z"/>
<path d="M2937 3978 c9 -10 17 -18 19 -18 1 0 2 8 1 18 0 10 -9 18 -19 18 -16
0 -16 -2 -1 -18z"/>
<path d="M758 3983 c7 -3 16 -2 19 1 4 3 -2 6 -13 5 -11 0 -14 -3 -6 -6z"/>
<path d="M2561 3974 c0 -11 3 -14 6 -6 3 7 2 16 -1 19 -3 4 -6 -2 -5 -13z"/>
<path d="M1785 3969 c-10 -15 3 -25 16 -12 7 7 7 13 1 17 -6 3 -14 1 -17 -5z"/>
<path d="M835 3960 c3 -5 11 -10 16 -10 6 0 7 5 4 10 -3 6 -11 10 -16 10 -6 0
-7 -4 -4 -10z"/>
<path d="M2226 3957 c3 -10 9 -15 12 -12 3 3 0 11 -7 18 -10 9 -11 8 -5 -6z"/>
<path d="M2980 3945 c7 -8 17 -15 22 -15 6 0 5 7 -2 15 -7 8 -17 15 -22 15 -6
0 -5 -7 2 -15z"/>
<path d="M2570 3939 c0 -5 -16 -17 -35 -25 -33 -13 -48 -34 -25 -34 6 0 10 5
10 11 0 6 6 9 13 6 6 -2 20 5 30 16 16 19 22 37 12 37 -3 0 -5 -5 -5 -11z"/>
<path d="M2273 3922 c-8 -5 -6 -14 7 -32 11 -14 20 -19 20 -12 0 7 4 11 8 8 4
-2 8 4 8 15 0 18 -2 19 -12 4 -9 -12 -14 -13 -19 -4 -4 6 -1 15 6 20 8 5 10 9
4 9 -5 0 -15 -4 -22 -8z"/>
<path d="M3000 3916 c0 -2 7 -7 16 -10 8 -3 12 -2 9 4 -6 10 -25 14 -25 6z"/>
<path d="M3078 3888 c12 -12 25 -18 29 -14 4 4 -1 14 -11 22 -31 22 -43 17
-18 -8z"/>
<path d="M1770 3885 c0 -8 2 -15 4 -15 2 0 6 7 10 15 3 8 1 15 -4 15 -6 0 -10
-7 -10 -15z"/>
<path d="M2480 3868 c0 -3 9 -15 20 -28 11 -13 20 -19 20 -13 0 5 -9 18 -20
28 -11 10 -20 16 -20 13z"/>
<path d="M3055 3860 c3 -5 8 -10 11 -10 2 0 4 5 4 10 0 6 -5 10 -11 10 -5 0
-7 -4 -4 -10z"/>
<path d="M3098 3845 c-4 -4 -4 -13 -2 -20 3 -7 1 -16 -5 -20 -6 -3 -11 -14
-11 -23 0 -13 3 -12 16 6 14 21 17 72 2 57z"/>
<path d="M992 3780 c0 -14 2 -19 5 -12 2 6 2 18 0 25 -3 6 -5 1 -5 -13z"/>
<path d="M1031 3784 c0 -11 3 -14 6 -6 3 7 2 16 -1 19 -3 4 -6 -2 -5 -13z"/>
<path d="M1707 3781 c-2 -10 -1 -25 4 -32 6 -10 9 -4 9 19 0 36 -5 42 -13 13z"/>
<path d="M1735 3789 c-4 -6 -5 -12 -2 -15 2 -3 7 2 10 11 7 17 1 20 -8 4z"/>
<path d="M2492 3775 c0 -16 2 -22 5 -12 2 9 2 23 0 30 -3 6 -5 -1 -5 -18z"/>
<path d="M3102 3770 c-18 -29 -15 -38 4 -12 9 13 14 25 12 27 -2 2 -9 -5 -16
-15z"/>
<path d="M1006 3743 c-10 -73 -18 -178 -13 -173 7 6 28 203 23 208 -2 2 -6
-14 -10 -35z"/>
<path d="M1965 3745 c-66 -31 -105 -88 -105 -152 0 -103 69 -175 170 -176 133
-2 214 141 145 259 -42 71 -138 103 -210 69z m157 -42 c34 -31 13 -93 -33 -93
-20 0 -59 33 -59 50 0 15 46 60 61 60 7 0 21 -7 31 -17z m-185 -198 c-22 -22
-22 -22 -39 -2 -24 26 -23 34 10 45 21 8 30 6 39 -6 10 -12 9 -19 -10 -37z
m173 -25 c-1 -22 -47 -50 -82 -50 -27 0 -68 26 -68 43 0 8 24 12 75 12 41 0
75 -2 75 -5z"/>
<path d="M2362 3735 c0 -16 2 -22 5 -12 2 9 2 23 0 30 -3 6 -5 -1 -5 -18z"/>
<path d="M2700 3729 c-109 -63 -115 -217 -11 -286 98 -65 231 -16 261 97 19
72 -21 160 -91 195 -41 22 -117 19 -159 -6z m178 -31 c7 -7 12 -24 12 -38 0
-34 -17 -50 -52 -50 -37 0 -57 38 -40 75 13 27 58 35 80 13z m-174 -164 c4
-10 -3 -23 -16 -34 -21 -18 -24 -18 -35 -3 -24 31 -13 50 28 52 9 1 20 -6 23
-15z m144 -81 c-28 -30 -86 -31 -116 -3 -12 12 -22 22 -22 23 0 1 36 2 80 2
l79 0 -21 -22z"/>
<path d="M1721 3714 c0 -11 3 -14 6 -6 3 7 2 16 -1 19 -3 4 -6 -2 -5 -13z"/>
<path d="M1022 3680 c0 -19 2 -27 5 -17 2 9 2 25 0 35 -3 9 -5 1 -5 -18z"/>
<path d="M3096 3685 c-7 -19 3 -47 15 -39 5 3 9 14 9 24 0 24 -16 34 -24 15z"/>
<path d="M2381 3640 c0 -8 4 -22 9 -30 12 -18 12 -2 0 25 -6 13 -9 15 -9 5z"/>
<path d="M3111 3614 c0 -11 3 -14 6 -6 3 7 2 16 -1 19 -3 4 -6 -2 -5 -13z"/>
<path d="M2381 3564 c0 -11 3 -14 6 -6 3 7 2 16 -1 19 -3 4 -6 -2 -5 -13z"/>
<path d="M3112 3560 c0 -14 2 -19 5 -12 2 6 2 18 0 25 -3 6 -5 1 -5 -13z"/>
<path d="M2353 3505 c0 -22 2 -30 4 -17 2 12 2 30 0 40 -3 9 -5 -1 -4 -23z"/>
<path d="M2372 3495 c0 -16 2 -22 5 -12 2 9 2 23 0 30 -3 6 -5 -1 -5 -18z"/>
<path d="M1691 3484 c0 -11 3 -14 6 -6 3 7 2 16 -1 19 -3 4 -6 -2 -5 -13z"/>
<path d="M926 3482 c-2 -4 4 -8 14 -8 10 0 16 4 14 8 -3 4 -9 8 -14 8 -5 0
-11 -4 -14 -8z"/>
<path d="M1721 3474 c0 -11 3 -14 6 -6 3 7 2 16 -1 19 -3 4 -6 -2 -5 -13z"/>
<path d="M3102 3460 c0 -14 2 -19 5 -12 2 6 2 18 0 25 -3 6 -5 1 -5 -13z"/>
<path d="M1731 3424 c0 -11 3 -14 6 -6 3 7 2 16 -1 19 -3 4 -6 -2 -5 -13z"/>
<path d="M2336 3423 c-6 -14 -5 -15 5 -6 7 7 10 15 7 18 -3 3 -9 -2 -12 -12z"/>
<path d="M2391 3424 c0 -11 3 -14 6 -6 3 7 2 16 -1 19 -3 4 -6 -2 -5 -13z"/>
<path d="M1681 3404 c0 -11 3 -14 6 -6 3 7 2 16 -1 19 -3 4 -6 -2 -5 -13z"/>
<path d="M3100 3406 c0 -8 4 -17 9 -20 5 -4 7 3 4 14 -6 23 -13 26 -13 6z"/>
<path d="M2491 3400 c0 -8 4 -22 9 -30 12 -18 12 -2 0 25 -6 13 -9 15 -9 5z"/>
<path d="M3072 3388 c-7 -7 -12 -16 -12 -21 0 -5 7 -1 16 8 9 9 14 18 12 20
-2 3 -10 -1 -16 -7z"/>
<path d="M840 3375 c0 -8 4 -15 8 -15 5 0 9 7 9 15 0 8 -4 15 -9 15 -4 0 -8
-7 -8 -15z"/>
<path d="M2310 3380 c0 -5 5 -10 11 -10 5 0 7 5 4 10 -3 6 -8 10 -11 10 -2 0
-4 -4 -4 -10z"/>
<path d="M2380 3375 c-7 -9 -8 -15 -2 -15 5 0 12 7 16 15 3 8 4 15 2 15 -2 0
-9 -7 -16 -15z"/>
<path d="M768 3373 c6 -2 18 -2 25 0 6 3 1 5 -13 5 -14 0 -19 -2 -12 -5z"/>
<path d="M663 3363 c9 -2 23 -2 30 0 6 3 -1 5 -18 5 -16 0 -22 -2 -12 -5z"/>
<path d="M2276 3313 c-14 -29 -14 -29 14 -29 21 0 27 3 22 15 -4 10 -7 11 -10
3 -2 -7 -8 -9 -13 -6 -6 3 -5 11 2 20 6 8 9 17 6 20 -3 3 -12 -7 -21 -23z"/>
<path d="M1800 3246 c0 -9 5 -16 10 -16 6 0 10 4 10 9 0 6 -4 13 -10 16 -5 3
-10 -1 -10 -9z"/>
<path d="M2226 3235 c-3 -8 -1 -15 4 -15 6 0 10 7 10 15 0 8 -2 15 -4 15 -2 0
-6 -7 -10 -15z"/>
<path d="M3026 3237 c3 -10 9 -15 12 -12 3 3 0 11 -7 18 -10 9 -11 8 -5 -6z"/>
<path d="M2980 3230 c0 -6 4 -9 9 -6 5 4 12 1 14 -4 3 -6 4 -5 3 2 -3 15 -26
23 -26 8z"/>
<path d="M2180 3175 c-8 -9 -8 -15 -2 -15 12 0 26 19 19 26 -2 2 -10 -2 -17
-11z"/>
<path d="M2916 3166 c3 -9 11 -16 16 -16 13 0 5 23 -10 28 -7 2 -10 -2 -6 -12z"/>
<path d="M1850 3160 c0 -5 5 -10 10 -10 6 0 10 5 10 10 0 6 -4 10 -10 10 -5 0
-10 -4 -10 -10z"/>
<path d="M2130 3155 c-14 -8 -33 -14 -42 -15 -28 0 -21 -15 6 -15 13 0 22 3
19 8 -2 4 5 7 16 7 11 0 23 5 26 11 11 17 2 18 -25 4z"/>
<path d="M2650 3160 c8 -5 20 -10 25 -10 6 0 3 5 -5 10 -8 5 -19 10 -25 10 -5
0 -3 -5 5 -10z"/>
<path d="M2560 3150 c0 -5 5 -10 10 -10 6 0 10 5 10 10 0 6 -4 10 -10 10 -5 0
-10 -4 -10 -10z"/>
<path d="M1888 3133 c7 -3 16 -2 19 1 4 3 -2 6 -13 5 -11 0 -14 -3 -6 -6z"/>
<path d="M2808 3123 c7 -3 16 -2 19 1 4 3 -2 6 -13 5 -11 0 -14 -3 -6 -6z"/>
<path d="M810 3110 c-21 -7 -22 -8 -5 -9 11 -1 29 -8 39 -16 26 -19 42 -19 26
0 -7 8 -20 15 -29 16 -12 0 -11 2 4 9 25 11 -1 11 -35 0z"/>
<path d="M3015 3000 c-19 -8 -19 -9 3 -9 12 -1 22 4 22 9 0 6 -1 10 -2 9 -2 0
-12 -4 -23 -9z"/>
<path d="M2968 2983 c7 -3 16 -2 19 1 4 3 -2 6 -13 5 -11 0 -14 -3 -6 -6z"/>
<path d="M1661 2946 c-12 -14 -11 -29 7 -96 12 -44 19 -88 16 -97 -5 -15 -4
-16 5 -3 6 8 11 10 11 4 0 -5 16 -36 35 -68 19 -31 32 -63 29 -70 -3 -8 -1
-17 5 -21 7 -4 8 1 4 12 -3 10 20 -10 52 -45 59 -63 153 -131 235 -170 25 -12
99 -31 165 -42 103 -18 130 -19 199 -9 44 6 83 12 86 14 3 2 23 6 45 9 58 9
212 90 266 139 105 96 198 244 214 338 4 21 10 37 15 34 8 -5 8 0 -5 59 -6 28
-7 29 -58 21 -29 -4 -64 -8 -79 -9 -14 0 -24 -4 -22 -7 4 -8 -141 -35 -289
-54 -224 -29 -467 -15 -727 41 -168 37 -193 39 -209 20z m1336 -68 c-3 -18
-15 -59 -27 -91 -26 -69 -27 -70 -195 -102 -240 -46 -432 -55 -647 -30 -104
12 -357 59 -364 68 -12 15 -35 74 -47 120 -12 46 -13 57 -2 57 7 0 64 -11 127
-24 352 -76 655 -76 1022 -1 65 14 121 27 124 30 12 11 14 3 9 -27z m-977
-260 c157 -25 473 -30 600 -10 41 7 102 16 135 21 33 5 78 12 99 16 l39 8 -23
-33 c-30 -42 -129 -115 -205 -151 -275 -130 -615 -73 -815 136 l-45 48 40 -7
c22 -4 101 -16 175 -28z"/>
<path d="M2063 2953 c9 -2 23 -2 30 0 6 3 -1 5 -18 5 -16 0 -22 -2 -12 -5z"/>
<path d="M2006 2941 c-4 -5 3 -7 14 -4 23 6 26 13 6 13 -8 0 -17 -4 -20 -9z"/>
<path d="M1920 2930 c14 -4 36 -8 50 -8 22 0 22 1 -5 8 -16 4 -39 8 -50 8 -16
0 -15 -2 5 -8z"/>
<path d="M2070 2930 c8 -5 20 -10 25 -10 6 0 3 5 -5 10 -8 5 -19 10 -25 10 -5
0 -3 -5 5 -10z"/>
<path d="M2613 2920 c-11 -16 -10 -18 2 -14 8 4 15 12 15 20 0 19 -3 18 -17
-6z"/>
<path d="M2723 2933 c9 -2 25 -2 35 0 9 3 1 5 -18 5 -19 0 -27 -2 -17 -5z"/>
<path d="M2560 2920 c0 -5 5 -10 10 -10 6 0 10 5 10 10 0 6 -4 10 -10 10 -5 0
-10 -4 -10 -10z"/>
<path d="M2038 2913 c6 -2 18 -2 25 0 6 3 1 5 -13 5 -14 0 -19 -2 -12 -5z"/>
<path d="M3105 2910 c3 -5 8 -10 11 -10 2 0 4 5 4 10 0 6 -5 10 -11 10 -5 0
-7 -4 -4 -10z"/>
<path d="M1606 2895 c-3 -8 -1 -15 4 -15 6 0 10 7 10 15 0 8 -2 15 -4 15 -2 0
-6 -7 -10 -15z"/>
<path d="M1012 2860 c0 -14 2 -19 5 -12 2 6 2 18 0 25 -3 6 -5 1 -5 -13z"/>
<path d="M1031 2864 c0 -11 3 -14 6 -6 3 7 2 16 -1 19 -3 4 -6 -2 -5 -13z"/>
<path d="M1610 2853 c0 -4 5 -15 10 -23 8 -13 10 -13 10 2 0 9 -4 20 -10 23
-5 3 -10 3 -10 -2z"/>
<path d="M1600 2821 c0 -6 4 -13 10 -16 6 -3 7 1 4 9 -7 18 -14 21 -14 7z"/>
<path d="M3016 2744 c-3 -9 -2 -23 2 -31 8 -13 10 -13 15 1 4 11 3 15 -4 10
-8 -4 -9 1 -4 15 7 24 0 29 -9 5z"/>
<path d="M1681 2695 c0 -5 3 -16 8 -23 7 -11 9 -10 14 3 4 9 3 14 -2 10 -5 -3
-12 1 -14 7 -3 7 -6 9 -6 3z"/>
<path d="M921 2606 c-13 -16 -7 -36 11 -36 7 0 7 5 -1 14 -9 11 -9 15 1 19 7
2 10 7 7 11 -3 4 -12 0 -18 -8z"/>
<path d="M2936 2604 c-8 -22 -4 -25 11 -9 7 8 9 16 4 19 -5 3 -12 -1 -15 -10z"/>
<path d="M772 2531 c-11 -6 -10 -10 4 -15 9 -3 19 -4 22 -1 3 3 -1 5 -9 5 -11
0 -11 2 1 10 8 5 11 10 5 10 -5 0 -16 -4 -23 -9z"/>
<path d="M728 2523 c7 -3 16 -2 19 1 4 3 -2 6 -13 5 -11 0 -14 -3 -6 -6z"/>
<path d="M2869 2528 c-5 -9 -5 -48 -1 -43 6 6 11 45 5 45 -2 0 -4 -1 -4 -2z"/>
<path d="M1844 2500 c0 -13 4 -16 10 -10 7 7 7 13 0 20 -6 6 -10 3 -10 -10z"/>
<path d="M686 2495 c-6 -17 9 -21 19 -5 4 6 9 9 13 6 4 -2 16 0 27 5 16 6 12
8 -16 8 -24 1 -39 -4 -43 -14z"/>
<path d="M765 2490 c-3 -6 1 -7 9 -4 18 7 21 14 7 14 -6 0 -13 -4 -16 -10z"/>
<path d="M2780 2440 c0 -5 5 -10 11 -10 5 0 7 5 4 10 -3 6 -8 10 -11 10 -2 0
-4 -4 -4 -10z"/>
<path d="M1940 2420 c-9 -6 -10 -10 -3 -10 6 0 15 5 18 10 8 12 4 12 -15 0z"/>
<path d="M2735 2419 c-11 -17 1 -21 15 -4 8 9 8 15 2 15 -6 0 -14 -5 -17 -11z"/>
<path d="M2565 2350 c-13 -5 -14 -9 -5 -9 8 0 24 4 35 9 13 5 14 9 5 9 -8 0
-24 -4 -35 -9z"/>
<path d="M2118 2333 c7 -3 16 -2 19 1 4 3 -2 6 -13 5 -11 0 -14 -3 -6 -6z"/>
<path d="M2198 2333 c7 -3 16 -2 19 1 4 3 -2 6 -13 5 -11 0 -14 -3 -6 -6z"/>
<path d="M2500 2336 c0 -2 9 -6 20 -9 11 -3 18 -1 14 4 -5 9 -34 13 -34 5z"/>
<path d="M2568 2323 c7 -3 16 -2 19 1 4 3 -2 6 -13 5 -11 0 -14 -3 -6 -6z"/>
<path d="M663 2313 c9 -2 23 -2 30 0 6 3 -1 5 -18 5 -16 0 -22 -2 -12 -5z"/>
<path d="M770 2290 c8 -5 20 -10 25 -10 6 0 3 5 -5 10 -8 5 -19 10 -25 10 -5
0 -3 -5 5 -10z"/>
<path d="M850 2226 c0 -2 7 -7 16 -10 8 -3 12 -2 9 4 -6 10 -25 14 -25 6z"/>
<path d="M920 2185 c7 -8 17 -15 22 -15 6 0 5 7 -2 15 -7 8 -17 15 -22 15 -6
0 -5 -7 2 -15z"/>
<path d="M990 2070 c0 -5 5 -10 10 -10 6 0 10 5 10 10 0 6 -4 10 -10 10 -5 0
-10 -4 -10 -10z"/>
<path d="M1014 2055 c-3 -14 -4 -29 0 -32 3 -4 6 3 6 15 0 11 5 22 12 24 9 3
9 6 0 12 -7 4 -14 -3 -18 -19z"/>
<path d="M2479 2067 c5 -5 30 -7 57 -5 l49 3 -57 5 c-31 3 -53 1 -49 -3z"/>
<path d="M2116 2057 c3 -10 9 -15 12 -12 3 3 0 11 -7 18 -10 9 -11 8 -5 -6z"/>
<path d="M1925 2050 c3 -5 8 -10 11 -10 2 0 4 5 4 10 0 6 -5 10 -11 10 -5 0
-7 -4 -4 -10z"/>
<path d="M2178 2053 c6 -2 18 -2 25 0 6 3 1 5 -13 5 -14 0 -19 -2 -12 -5z"/>
<path d="M991 2034 c0 -11 3 -14 6 -6 3 7 2 16 -1 19 -3 4 -6 -2 -5 -13z"/>
<path d="M2564 2035 c-18 -13 -18 -14 -1 -15 10 0 25 7 33 15 21 21 -5 21 -32
0z"/>
<path d="M2680 1985 c14 -8 30 -14 35 -14 6 0 -1 6 -15 14 -14 8 -29 14 -35
14 -5 0 1 -6 15 -14z"/>
<path d="M2763 1973 c9 -2 23 -2 30 0 6 3 -1 5 -18 5 -16 0 -22 -2 -12 -5z"/>
<path d="M1925 1940 c-3 -6 1 -7 9 -4 18 7 21 14 7 14 -6 0 -13 -4 -16 -10z"/>
<path d="M996 1904 c-8 -20 -8 -89 0 -82 5 6 13 98 8 98 -1 0 -5 -7 -8 -16z"/>
<path d="M1826 1911 c-10 -15 34 -25 48 -11 8 10 8 11 -2 6 -7 -4 -19 -3 -27
4 -8 7 -15 7 -19 1z"/>
<path d="M2810 1910 c8 -5 20 -10 25 -10 6 0 3 5 -5 10 -8 5 -19 10 -25 10 -5
0 -3 -5 5 -10z"/>
<path d="M1778 1903 c-10 -2 -18 -9 -18 -14 0 -6 10 -5 23 2 37 20 36 23 -5
12z"/>
<path d="M1011 1883 c-2 -20 11 -43 20 -37 5 3 9 10 9 15 0 6 -4 8 -9 4 -5 -3
-12 3 -14 12 -3 10 -5 13 -6 6z"/>
<path d="M1813 1876 c8 -20 -26 -48 -49 -40 -18 5 -18 5 -1 -6 15 -10 23 -8
41 9 23 22 31 51 13 51 -5 0 -7 -6 -4 -14z"/>
<path d="M2880 1875 c-11 -13 -10 -14 4 -9 9 3 16 10 16 15 0 13 -6 11 -20 -6z"/>
<path d="M1720 1829 c0 -5 5 -7 10 -4 6 3 10 8 10 11 0 2 -4 4 -10 4 -5 0 -10
-5 -10 -11z"/>
<path d="M2332 1788 c2 -41 7 -54 21 -56 14 -3 17 5 17 52 0 50 -2 56 -21 56
-18 0 -20 -5 -17 -52z"/>
<path d="M2917 1818 c18 -17 25 -20 35 -10 9 9 9 15 -1 25 -10 10 -11 9 -6 -5
4 -11 2 -18 -4 -18 -6 0 -11 4 -11 9 0 5 -8 12 -17 15 -14 6 -13 2 4 -16z"/>
<path d="M2986 1763 c-5 -11 3 -25 21 -42 15 -15 20 -17 12 -6 -9 11 -20 27
-24 35 -8 13 -7 13 8 1 18 -14 21 -12 11 13 -8 21 -20 20 -28 -1z"/>
<path d="M930 1766 c0 -2 7 -7 16 -10 8 -3 12 -2 9 4 -6 10 -25 14 -25 6z"/>
<path d="M1686 1743 c-8 -20 10 -24 27 -5 15 16 15 18 -3 18 -11 0 -22 -6 -24
-13z"/>
<path d="M910 1730 c-8 -5 -12 -11 -9 -14 3 -3 14 1 25 9 21 16 8 20 -16 5z"/>
<path d="M1605 1669 c-4 -6 -5 -12 -2 -15 2 -3 7 2 10 11 7 17 1 20 -8 4z"/>
<path d="M3066 1672 c6 -4 16 -17 23 -30 7 -12 16 -20 21 -17 11 7 -29 55 -44
55 -8 0 -8 -3 0 -8z"/>
<path d="M658 1643 c7 -3 16 -2 19 1 4 3 -2 6 -13 5 -11 0 -14 -3 -6 -6z"/>
<path d="M1625 1640 c3 -5 8 -10 11 -10 2 0 4 5 4 10 0 6 -5 10 -11 10 -5 0
-7 -4 -4 -10z"/>
<path d="M3066 1627 c3 -10 9 -15 12 -12 3 3 0 11 -7 18 -10 9 -11 8 -5 -6z"/>
<path d="M697 1619 c7 -7 15 -10 18 -7 3 3 -2 9 -12 12 -14 6 -15 5 -6 -5z"/>
<path d="M3100 1599 c0 -5 5 -7 10 -4 6 3 10 8 10 11 0 2 -4 4 -10 4 -5 0 -10
-5 -10 -11z"/>
<path d="M2546 1465 c-77 -69 -144 -129 -149 -134 -5 -5 -2 -17 10 -28 10 -11
23 -27 28 -36 8 -13 34 5 160 118 82 73 151 138 153 145 2 6 1 22 -2 35 -5 19
-13 25 -34 25 -20 -1 -62 -32 -166 -125z"/>
<path d="M3106 1565 c-9 -26 -7 -32 5 -12 6 10 9 21 6 23 -2 3 -7 -2 -11 -11z"/>
<path d="M1551 1511 c-12 -7 -11 -12 1 -30 15 -21 15 -21 14 9 -1 16 -1 30 -1
30 0 0 -6 -4 -14 -9z"/>
<path d="M3180 1506 c0 -9 5 -16 10 -16 6 0 10 4 10 9 0 6 -4 13 -10 16 -5 3
-10 -1 -10 -9z"/>
<path d="M3150 1492 c0 -5 7 -15 15 -22 8 -7 15 -9 15 -6 0 4 -7 14 -15 22 -8
9 -15 11 -15 6z"/>
<path d="M2117 1472 c-10 -10 -17 -26 -17 -35 0 -8 38 -55 85 -104 56 -58 85
-82 85 -70 0 10 11 28 25 41 l25 23 -84 81 c-46 45 -88 82 -93 82 -6 0 -17 -8
-26 -18z"/>
<path d="M1531 1480 c-1 -3 6 -23 14 -45 8 -22 14 -31 14 -20 0 17 -28 80 -28
65z"/>
<path d="M818 1423 c6 -2 18 -2 25 0 6 3 1 5 -13 5 -14 0 -19 -2 -12 -5z"/>
<path d="M735 1410 c27 -12 43 -12 25 0 -8 5 -22 9 -30 9 -10 0 -8 -3 5 -9z"/>
<path d="M3172 1380 c0 -14 2 -19 5 -12 2 6 2 18 0 25 -3 6 -5 1 -5 -13z"/>
<path d="M1526 1351 c-4 -7 -5 -15 -2 -18 9 -9 19 4 14 18 -4 11 -6 11 -12 0z"/>
<path d="M3162 1300 c0 -14 2 -19 5 -12 2 6 2 18 0 25 -3 6 -5 1 -5 -13z"/>
<path d="M3181 1294 c0 -11 3 -14 6 -6 3 7 2 16 -1 19 -3 4 -6 -2 -5 -13z"/>
<path d="M1020 1271 c0 -5 5 -13 10 -16 6 -3 10 -2 10 4 0 5 -4 13 -10 16 -5
3 -10 2 -10 -4z"/>
<path d="M1755 1250 c-12 -20 7 -30 55 -30 32 0 50 5 53 14 3 8 3 17 0 20 -10
10 -101 7 -108 -4z"/>
<path d="M2842 1243 c2 -14 15 -19 56 -21 47 -3 52 -1 52 17 0 19 -6 21 -56
21 -47 0 -55 -3 -52 -17z"/>
<path d="M3182 1180 c0 -14 2 -19 5 -12 2 6 2 18 0 25 -3 6 -5 1 -5 -13z"/>
<path d="M1021 1164 c0 -11 3 -14 6 -6 3 7 2 16 -1 19 -3 4 -6 -2 -5 -13z"/>
<path d="M996 1130 c8 -56 14 -64 14 -19 0 19 -5 41 -10 49 -7 10 -8 1 -4 -30z"/>
<path d="M1520 1141 c0 -6 4 -12 9 -15 4 -3 11 -20 15 -37 3 -18 9 -30 12 -27
8 8 -17 88 -28 88 -4 0 -8 -4 -8 -9z"/>
<path d="M3172 1095 c0 -16 2 -22 5 -12 2 9 2 23 0 30 -3 6 -5 -1 -5 -18z"/>
<path d="M1018 1077 c-3 -19 -2 -25 4 -19 6 6 8 18 6 28 -3 14 -5 12 -10 -9z"/>
<path d="M1533 1048 c1 -16 5 -28 9 -28 10 0 9 9 -2 35 -8 17 -8 16 -7 -7z"/>
<path d="M3181 1041 c-8 -5 -9 -11 -3 -15 5 -3 12 1 16 9 6 17 6 18 -13 6z"/>
<path d="M3155 1001 c-6 -11 9 -23 19 -14 9 9 7 23 -3 23 -6 0 -12 -4 -16 -9z"/>
<path d="M1020 989 c0 -5 5 -7 10 -4 6 3 10 8 10 11 0 2 -4 4 -10 4 -5 0 -10
-5 -10 -11z"/>
<path d="M976 973 c-6 -14 -5 -15 5 -6 7 7 10 15 7 18 -3 3 -9 -2 -12 -12z"/>
<path d="M3082 895 c-27 -56 -18 -95 10 -44 l19 34 -5 -40 c-5 -37 -4 -38 5
-12 12 30 5 62 -11 52 -13 -8 -13 1 1 27 6 11 9 21 7 24 -2 2 -14 -16 -26 -41z
m-1 -42 c-12 -20 -14 -14 -5 12 4 9 9 14 11 11 3 -2 0 -13 -6 -23z"/>
<path d="M1624 867 c4 -15 2 -37 -4 -50 -10 -20 -10 -20 3 -4 8 9 17 17 21 17
3 0 6 -8 7 -17 0 -10 3 -13 5 -6 3 6 -5 28 -16 50 -19 32 -21 34 -16 10z"/>
<path d="M3035 809 c-4 -6 -4 -13 -1 -16 3 -4 6 -1 6 6 0 7 5 9 12 5 7 -4 8
-3 4 4 -9 15 -13 15 -21 1z"/>
<path d="M3010 774 c0 -6 -9 -20 -20 -32 -12 -12 -17 -22 -12 -22 13 0 45 50
38 58 -3 3 -6 1 -6 -4z"/>
<path d="M1688 759 c-6 -60 -2 -116 9 -112 16 6 17 19 3 28 -13 8 -13 45 1 45
5 0 8 -4 4 -9 -3 -5 -1 -12 5 -16 5 -3 10 1 10 10 0 10 5 13 13 9 6 -4 1 6
-13 22 -14 16 -26 31 -27 33 -2 2 -4 -2 -5 -10z"/>
<path d="M2343 753 c-8 -3 -13 -25 -13 -59 0 -47 2 -54 20 -54 18 0 20 7 20
54 0 56 -5 67 -27 59z"/>
<path d="M3020 741 c0 -6 4 -13 10 -16 6 -3 7 1 4 9 -7 18 -14 21 -14 7z"/>
<path d="M682 700 c0 -14 2 -19 5 -12 2 6 2 18 0 25 -3 6 -5 1 -5 -13z"/>
<path d="M1750 682 c0 -11 8 -26 18 -33 15 -13 16 -12 4 3 -8 9 -11 22 -8 27
4 5 2 12 -4 16 -5 3 -10 -3 -10 -13z"/>
<path d="M2939 683 c-13 -16 -12 -17 4 -4 16 13 21 21 13 21 -2 0 -10 -8 -17
-17z"/>
<path d="M667 651 c-4 -17 -3 -21 5 -13 5 5 8 16 6 23 -3 8 -7 3 -11 -10z"/>
<path d="M691 648 c0 -13 4 -32 8 -43 6 -15 8 -8 8 23 0 23 -4 42 -8 42 -5 0
-9 -10 -8 -22z"/>
<path d="M2946 653 c-6 -14 -5 -15 5 -6 7 7 10 15 7 18 -3 3 -9 -2 -12 -12z"/>
<path d="M2905 650 c-3 -5 -1 -10 4 -10 6 0 11 5 11 10 0 6 -2 10 -4 10 -3 0
-8 -4 -11 -10z"/>
<path d="M1728 643 c7 -3 16 -2 19 1 4 3 -2 6 -13 5 -11 0 -14 -3 -6 -6z"/>
<path d="M4016 593 c-9 -26 -12 -43 -7 -38 11 13 32 77 27 82 -2 2 -11 -17
-20 -44z"/>
<path d="M1786 615 c8 -20 38 -36 77 -41 l32 -3 -25 19 c-14 10 -26 15 -28 11
-5 -14 -42 0 -42 15 0 8 -4 14 -10 14 -5 0 -7 -7 -4 -15z"/>
<path d="M681 599 c-1 -8 6 -24 15 -35 15 -19 15 -19 6 1 -5 11 -12 27 -15 35
-5 13 -6 13 -6 -1z"/>
<path d="M1767 570 c-3 -11 -1 -20 4 -20 5 0 9 2 9 4 0 2 3 11 6 20 3 9 2 16
-4 16 -5 0 -12 -9 -15 -20z"/>
<path d="M2822 581 c-11 -7 -11 -9 0 -14 9 -3 15 1 15 9 0 8 -1 14 -1 14 -1 0
-7 -4 -14 -9z"/>
<path d="M2856 581 c-3 -5 0 -11 7 -14 8 -3 14 1 14 9 0 16 -13 19 -21 5z"/>
<path d="M3925 550 c-3 -5 1 -10 9 -10 9 0 16 5 16 10 0 6 -4 10 -9 10 -6 0
-13 -4 -16 -10z"/>
<path d="M1927 533 c-11 -11 -8 -21 9 -27 14 -5 15 -4 5 8 -9 11 -9 15 1 19 7
3 8 6 2 6 -6 1 -14 -2 -17 -6z"/>
<path d="M2745 530 c-3 -5 -2 -10 4 -10 5 0 13 5 16 10 3 6 2 10 -4 10 -5 0
-13 -4 -16 -10z"/>
<path d="M3930 520 c-13 -8 -13 -10 2 -10 9 0 20 5 23 10 8 13 -5 13 -25 0z"/>
<path d="M2700 510 c-9 -6 -10 -10 -3 -10 6 0 15 5 18 10 8 12 4 12 -15 0z"/>
<path d="M1995 500 c3 -5 14 -10 23 -10 15 0 15 2 2 10 -20 13 -33 13 -25 0z"/>
<path d="M3927 481 c-3 -13 -1 -18 9 -14 7 2 10 11 7 19 -7 19 -10 18 -16 -5z"/>
<path d="M2107 453 c5 -12 2 -15 -10 -10 -9 3 -17 2 -17 -3 0 -6 9 -10 20 -10
11 0 20 5 20 10 0 6 8 10 18 11 14 0 14 2 -3 9 -30 13 -35 12 -28 -7z"/>
<path d="M2550 449 c0 -5 5 -7 10 -4 6 3 10 8 10 11 0 2 -4 4 -10 4 -5 0 -10
-5 -10 -11z"/>
<path d="M770 441 c0 -5 7 -11 14 -14 10 -4 13 -1 9 9 -6 15 -23 19 -23 5z"/>
<path d="M2518 443 c7 -3 16 -2 19 1 4 3 -2 6 -13 5 -11 0 -14 -3 -6 -6z"/>
<path d="M2225 431 c17 -7 15 -9 -15 -13 l-35 -3 36 -6 c29 -4 36 -2 34 11 -1
8 -10 16 -21 17 -18 3 -17 2 1 -6z"/>
<path d="M2292 429 c-9 -3 5 -7 33 -7 27 -1 61 -3 75 -5 14 -2 19 -2 11 1 -9
2 -10 6 -3 11 13 8 -92 8 -116 0z"/>
<path d="M2445 430 c3 -5 11 -10 16 -10 6 0 7 5 4 10 -3 6 -11 10 -16 10 -6 0
-7 -4 -4 -10z"/>
<path d="M2484 414 c-10 -8 -13 -12 -6 -9 8 4 26 11 40 15 22 7 23 8 6 9 -11
1 -29 -6 -40 -15z"/>
<path d="M2573 413 c9 -2 23 -2 30 0 6 3 -1 5 -18 5 -16 0 -22 -2 -12 -5z"/>
<path d="M861 391 c-11 -7 -7 -13 17 -25 17 -9 37 -16 44 -16 7 1 -3 8 -22 16
-27 12 -32 17 -20 24 8 5 11 10 5 10 -5 0 -16 -4 -24 -9z"/>
<path d="M923 375 c16 -9 31 -14 35 -11 8 9 0 14 -33 21 l-30 6 28 -16z"/>
<path d="M3800 386 c0 -2 7 -7 16 -10 8 -3 12 -2 9 4 -6 10 -25 14 -25 6z"/>
<path d="M3788 353 c7 -3 16 -2 19 1 4 3 -2 6 -13 5 -11 0 -14 -3 -6 -6z"/>
<path d="M4232 3070 c0 -19 2 -27 5 -17 2 9 2 25 0 35 -3 9 -5 1 -5 -18z"/>
<path d="M4298 2913 c18 -2 45 -2 60 0 15 2 0 4 -33 4 -33 0 -45 -2 -27 -4z"/>
<path d="M4263 2123 c9 -2 23 -2 30 0 6 3 -1 5 -18 5 -16 0 -22 -2 -12 -5z"/>
<path d="M4358 2123 c6 -2 18 -2 25 0 6 3 1 5 -13 5 -14 0 -19 -2 -12 -5z"/>
<path d="M4325 1030 c3 -5 8 -10 11 -10 2 0 4 5 4 10 0 6 -5 10 -11 10 -5 0
-7 -4 -4 -10z"/>
<path d="M4321 964 c0 -11 3 -14 6 -6 3 7 2 16 -1 19 -3 4 -6 -2 -5 -13z"/>
<path d="M4336 945 c-9 -26 -7 -32 5 -12 6 10 9 21 6 23 -2 3 -7 -2 -11 -11z"/>
<path d="M4344 904 c-4 -17 -9 -22 -14 -14 -4 7 -7 1 -7 -14 0 -24 1 -25 12
-9 15 22 29 63 21 63 -3 0 -9 -12 -12 -26z"/>
</g>
</svg>
