<svg width="16" height="18" viewBox="0 0 16 18" fill="none" xmlns="http://www.w3.org/2000/svg">
<path d="M13.6043 9.34985L8.45432 14.5082C7.77916 15.1082 6.90027 15.4276 5.99742 15.401C5.09457 15.3744 4.23598 15.0039 3.59729 14.3652C2.9586 13.7265 2.58807 12.8679 2.5615 11.9651C2.53492 11.0622 2.8543 10.1833 3.45432 9.50818L10.121 2.84152C10.519 2.46343 11.047 2.25263 11.596 2.25263C12.145 2.25263 12.673 2.46343 13.071 2.84152C13.4588 3.23451 13.6762 3.76441 13.6762 4.31652C13.6762 4.86863 13.4588 5.39853 13.071 5.79152L7.32098 11.5332C7.26408 11.5945 7.19566 11.6439 7.11963 11.6788C7.0436 11.7136 6.96146 11.7332 6.87789 11.7362C6.79431 11.7393 6.71095 11.7259 6.63255 11.6968C6.55416 11.6677 6.48227 11.6234 6.42098 11.5665C6.3597 11.5096 6.31022 11.4412 6.27538 11.3652C6.24054 11.2891 6.22102 11.207 6.21792 11.1234C6.21482 11.0398 6.22822 10.9565 6.25734 10.8781C6.28646 10.7997 6.33074 10.7278 6.38765 10.6665L10.6627 6.39985C10.8196 6.24293 10.9077 6.0301 10.9077 5.80818C10.9077 5.58627 10.8196 5.37344 10.6627 5.21652C10.5057 5.0596 10.2929 4.97144 10.071 4.97144C9.84906 4.97144 9.63624 5.0596 9.47932 5.21652L5.20432 9.49985C4.9904 9.7121 4.82062 9.9646 4.70476 10.2428C4.5889 10.521 4.52925 10.8193 4.52925 11.1207C4.52925 11.422 4.5889 11.7204 4.70476 11.9986C4.82062 12.2768 4.9904 12.5293 5.20432 12.7415C5.64129 13.1578 6.22166 13.3899 6.82515 13.3899C7.42864 13.3899 8.00901 13.1578 8.44598 12.7415L14.1876 6.99152C14.85 6.28064 15.2107 5.34041 15.1935 4.36891C15.1764 3.3974 14.7828 2.47047 14.0958 1.78341C13.4087 1.09634 12.4818 0.702784 11.5103 0.685643C10.5388 0.668502 9.59852 1.02912 8.88765 1.69152L2.22098 8.35818C1.32198 9.35388 0.84184 10.6581 0.880594 11.999C0.919348 13.3399 1.47401 14.6142 2.42902 15.5563C3.38402 16.4984 4.66571 17.0357 6.00705 17.0563C7.34839 17.0768 8.64593 16.579 9.62932 15.6665L14.7876 10.5165C14.8653 10.4388 14.927 10.3466 14.969 10.2451C15.0111 10.1435 15.0327 10.0347 15.0327 9.92485C15.0327 9.81497 15.0111 9.70616 14.969 9.60464C14.927 9.50313 14.8653 9.41088 14.7876 9.33318C14.71 9.25548 14.6177 9.19385 14.5162 9.1518C14.4147 9.10975 14.3059 9.08811 14.196 9.08811C14.0861 9.08811 13.9773 9.10975 13.8758 9.1518C13.7743 9.19385 13.682 9.25548 13.6043 9.33318V9.34985Z" fill="#9E9E9E"/>
</svg>
