<svg width="21" height="20" viewBox="0 0 21 20" fill="none" xmlns="http://www.w3.org/2000/svg">
    <path d="M7.66406 1.66406V4.16406" stroke="#202D41" stroke-opacity="0.4" stroke-width="1.5" stroke-miterlimit="10" stroke-linecap="round" stroke-linejoin="round"/>
    <path d="M14.3359 1.66406V4.16406" stroke="#202D41" stroke-opacity="0.4" stroke-width="1.5" stroke-miterlimit="10" stroke-linecap="round" stroke-linejoin="round"/>
    <path d="M14.3333 2.91406C17.1083 3.06406 18.5 4.1224 18.5 8.03906V13.1891C18.5 16.6224 17.6667 18.3391 13.5 18.3391H8.5C4.33333 18.3391 3.5 16.6224 3.5 13.1891V8.03906C3.5 4.1224 4.89167 3.0724 7.66667 2.91406H14.3333Z" stroke="#202D41" stroke-opacity="0.4" stroke-width="1.5" stroke-miterlimit="10" stroke-linecap="round" stroke-linejoin="round"/>
    <path d="M18.2943 14.6641H3.71094" stroke="#202D41" stroke-opacity="0.4" stroke-width="1.5" stroke-miterlimit="10" stroke-linecap="round" stroke-linejoin="round"/>
    <path d="M10.9974 6.875C9.9724 6.875 9.10573 7.43333 9.10573 8.51667C9.10573 9.03333 9.3474 9.425 9.71406 9.675C9.20573 9.975 8.91406 10.4583 8.91406 11.025C8.91406 12.0583 9.70573 12.7 10.9974 12.7C12.2807 12.7 13.0807 12.0583 13.0807 11.025C13.0807 10.4583 12.7891 9.96667 12.2724 9.675C12.6474 9.41667 12.8807 9.03333 12.8807 8.51667C12.8807 7.43333 12.0224 6.875 10.9974 6.875ZM10.9974 9.24167C10.5641 9.24167 10.2474 8.98333 10.2474 8.575C10.2474 8.15833 10.5641 7.91667 10.9974 7.91667C11.4307 7.91667 11.7474 8.15833 11.7474 8.575C11.7474 8.98333 11.4307 9.24167 10.9974 9.24167ZM10.9974 11.6667C10.4474 11.6667 10.0474 11.3917 10.0474 10.8917C10.0474 10.3917 10.4474 10.125 10.9974 10.125C11.5474 10.125 11.9474 10.4 11.9474 10.8917C11.9474 11.3917 11.5474 11.6667 10.9974 11.6667Z" fill="#202D41" fill-opacity="0.4"/>
</svg>