<svg width="17" height="16" viewBox="0 0 17 16" fill="none" xmlns="http://www.w3.org/2000/svg">
<path fill-rule="evenodd" clip-rule="evenodd" d="M13.0708 3.197C13.1041 3.25527 13.1624 3.29689 13.2374 3.29689C15.2374 3.29689 16.8708 4.92841 16.8708 6.92619V11.8707C16.8708 13.8685 15.2374 15.5 13.2374 15.5H3.83744C1.8291 15.5 0.204102 13.8685 0.204102 11.8707V6.92619C0.204102 4.92841 1.8291 3.29689 3.83744 3.29689C3.9041 3.29689 3.97077 3.2636 3.99577 3.197L4.04577 3.09711C4.0745 3.03665 4.10398 2.97455 4.13391 2.9115C4.3471 2.46246 4.58295 1.96567 4.7291 1.6737C5.11243 0.924528 5.76243 0.508324 6.57077 0.5H10.4958C11.3041 0.508324 11.9624 0.924528 12.3458 1.6737C12.477 1.93592 12.677 2.35833 12.8698 2.76545C12.9095 2.84942 12.949 2.93274 12.9874 3.01387L13.0708 3.197ZM12.4624 6.39345C12.4624 6.80966 12.7958 7.14262 13.2124 7.14262C13.6291 7.14262 13.9708 6.80966 13.9708 6.39345C13.9708 5.97725 13.6291 5.63596 13.2124 5.63596C12.7958 5.63596 12.4624 5.97725 12.4624 6.39345ZM7.09577 7.68368C7.48743 7.29245 7.99577 7.08435 8.53743 7.08435C9.0791 7.08435 9.58743 7.29245 9.97077 7.67536C10.3541 8.05827 10.5624 8.56604 10.5624 9.1071C10.5541 10.2225 9.6541 11.1299 8.53743 11.1299C7.99577 11.1299 7.48743 10.9218 7.1041 10.5388C6.72077 10.1559 6.51243 9.64817 6.51243 9.1071V9.09878C6.5041 8.57436 6.71243 8.06659 7.09577 7.68368ZM10.8458 11.4212C10.2541 12.0122 9.43744 12.3785 8.53744 12.3785C7.66244 12.3785 6.84577 12.0372 6.22077 11.4212C5.6041 10.7969 5.26243 9.98113 5.26243 9.1071C5.2541 8.2414 5.59577 7.42564 6.21244 6.80133C6.83744 6.17703 7.66244 5.83574 8.53744 5.83574C9.41244 5.83574 10.2374 6.17703 10.8541 6.79301C11.4708 7.41731 11.8124 8.2414 11.8124 9.1071C11.8041 10.0144 11.4374 10.8302 10.8458 11.4212Z" fill="#9E9E9E"/>
</svg>
