<svg width="26" height="22" viewBox="0 0 26 22" fill="none" xmlns="http://www.w3.org/2000/svg">
<path fill-rule="evenodd" clip-rule="evenodd" d="M12.9679 20.7634C9.1891 20.7634 5.96094 20.1918 5.96094 17.9028C5.96094 15.6138 9.1681 13.6211 12.9679 13.6211C16.7468 13.6211 19.9749 15.5951 19.9749 17.8829C19.9749 20.1708 16.7678 20.7634 12.9679 20.7634Z" stroke="#212121" stroke-width="1.5" stroke-linecap="round" stroke-linejoin="round"/>
<path fill-rule="evenodd" clip-rule="evenodd" d="M12.9682 10.3572C15.4486 10.3572 17.4599 8.347 17.4599 5.86667C17.4599 3.38633 15.4486 1.375 12.9682 1.375C10.4879 1.375 8.47658 3.38633 8.47658 5.86667C8.46958 8.33767 10.4646 10.349 12.9367 10.3572H12.9682Z" stroke="#212121" stroke-width="1.5" stroke-linecap="round" stroke-linejoin="round"/>
<path d="M20.4202 9.12452C21.8634 8.73835 22.9274 7.42235 22.9274 5.85552C22.9274 4.22102 21.7689 2.85602 20.2266 2.54102" stroke="#212121" stroke-width="1.5" stroke-linecap="round" stroke-linejoin="round"/>
<path d="M21.1016 12.8027C23.1479 12.8027 24.8956 14.1899 24.8956 15.4289C24.8956 16.1581 24.2924 16.9526 23.3777 17.1672" stroke="#212121" stroke-width="1.5" stroke-linecap="round" stroke-linejoin="round"/>
<path d="M5.50833 9.12452C4.064 8.73835 3 7.42235 3 5.85552C3 4.22102 4.15967 2.85602 5.70083 2.54102" stroke="#212121" stroke-width="1.5" stroke-linecap="round" stroke-linejoin="round"/>
<path d="M4.83306 12.8027C2.78673 12.8027 1.03906 14.1899 1.03906 15.4289C1.03906 16.1581 1.64223 16.9526 2.55806 17.1672" stroke="#212121" stroke-width="1.5" stroke-linecap="round" stroke-linejoin="round"/>
</svg>
