<svg width="10" height="10" viewBox="0 0 10 10" fill="none" xmlns="http://www.w3.org/2000/svg">
<path d="M4.0575 8.85964C4.00917 8.81255 3.8025 8.63476 3.6325 8.46915C2.56333 7.49822 0.813333 4.96534 0.279167 3.63963C0.193333 3.4383 0.0116667 2.92929 0 2.65733C0 2.39674 0.06 2.14832 0.181667 1.91127C0.351667 1.61577 0.619167 1.37872 0.935 1.24882C1.15417 1.16521 1.81 1.03532 1.82167 1.03532C2.53917 0.905425 3.705 0.833984 4.99333 0.833984C6.22083 0.833984 7.33917 0.905425 8.0675 1.01177C8.07917 1.02395 8.89417 1.15384 9.17333 1.29591C9.68333 1.5565 10 2.06552 10 2.61025V2.65733C9.9875 3.0121 9.67083 3.75816 9.65917 3.75816C9.12417 5.01242 7.46 7.48685 6.35417 8.48133C6.35417 8.48133 6.07 8.76141 5.8925 8.88318C5.6375 9.07315 5.32167 9.16732 5.00583 9.16732C4.65333 9.16732 4.325 9.06097 4.0575 8.85964Z" fill="#212121"/>
</svg>
