<svg width="31" height="31" viewBox="0 0 31 31" fill="none" xmlns="http://www.w3.org/2000/svg">
<path fill-rule="evenodd" clip-rule="evenodd" d="M22.3009 0.931088C24.3988 0.799974 26.4675 1.52839 28.0263 2.95608C29.454 4.51488 30.1824 6.58357 30.0659 8.69597V22.3027C30.197 24.4151 29.454 26.4838 28.0409 28.0426C26.4821 29.4703 24.3988 30.1987 22.3009 30.0676H8.69408C6.58167 30.1987 4.51296 29.4703 2.95414 28.0426C1.52644 26.4838 0.798019 24.4151 0.929135 22.3027V8.69597C0.798019 6.58357 1.52644 4.51488 2.95414 2.95608C4.51296 1.52839 6.58167 0.799974 8.69408 0.931088H22.3009ZM14.0115 22.565L23.8161 12.7314C24.7047 11.8281 24.7047 10.3713 23.8161 9.48266L21.9222 7.58878C21.0189 6.68555 19.5621 6.68555 18.6588 7.58878L17.6828 8.57942C17.5371 8.72511 17.5371 8.97277 17.6828 9.11845C17.6828 9.11845 19.9991 11.4202 20.0428 11.4785C20.2031 11.6533 20.3051 11.8864 20.3051 12.1486C20.3051 12.6731 19.8826 13.1102 19.3436 13.1102C19.0959 13.1102 18.8628 13.0082 18.7026 12.8479L16.2696 10.4296C16.1531 10.313 15.9491 10.313 15.8326 10.4296L8.88347 17.3787C8.40271 17.8594 8.12591 18.5004 8.11135 19.1851L8.02394 22.6378C8.02394 22.8272 8.08221 23.002 8.21332 23.1331C8.34444 23.2642 8.51926 23.3371 8.70865 23.3371H12.1322C12.8315 23.3371 13.5016 23.0603 14.0115 22.565Z" fill="#0EBE7E"/>
</svg>
