<svg width="21" height="20" viewBox="0 0 21 20" fill="none" xmlns="http://www.w3.org/2000/svg">
    <path d="M19.3333 7.0974V3.31406C19.3333 2.13906 18.8 1.66406 17.475 1.66406H14.1083C12.7833 1.66406 12.25 2.13906 12.25 3.31406V7.08906C12.25 8.2724 12.7833 8.73906 14.1083 8.73906H17.475C18.8 8.7474 19.3333 8.2724 19.3333 7.0974Z" fill="#202D41" fill-opacity="0.4"/>
    <path d="M19.3333 16.475V13.1083C19.3333 11.7833 18.8 11.25 17.475 11.25H14.1083C12.7833 11.25 12.25 11.7833 12.25 13.1083V16.475C12.25 17.8 12.7833 18.3333 14.1083 18.3333H17.475C18.8 18.3333 19.3333 17.8 19.3333 16.475Z" fill="#202D41" fill-opacity="0.4"/>
    <path d="M9.7474 7.0974V3.31406C9.7474 2.13906 9.21406 1.66406 7.88906 1.66406H4.5224C3.1974 1.66406 2.66406 2.13906 2.66406 3.31406V7.08906C2.66406 8.2724 3.1974 8.73906 4.5224 8.73906H7.88906C9.21406 8.7474 9.7474 8.2724 9.7474 7.0974Z" fill="#202D41" fill-opacity="0.4"/>
    <path d="M9.7474 16.475V13.1083C9.7474 11.7833 9.21406 11.25 7.88906 11.25H4.5224C3.1974 11.25 2.66406 11.7833 2.66406 13.1083V16.475C2.66406 17.8 3.1974 18.3333 4.5224 18.3333H7.88906C9.21406 18.3333 9.7474 17.8 9.7474 16.475Z" fill="#202D41" fill-opacity="0.4"/>
</svg>
