<svg width="14" height="14" viewBox="0 0 14 14" fill="none" xmlns="http://www.w3.org/2000/svg">
<mask id="path-1-inside-1_713_19078" fill="white">
<path fill-rule="evenodd" clip-rule="evenodd" d="M9.52347 11.6349H12.3509C13.5574 11.6349 14.2164 10.2277 13.444 9.30089C12.885 8.63024 12.5122 7.82443 12.3628 6.96426L11.9097 4.35463C11.4946 1.96413 9.42003 0.21875 6.99376 0.21875C4.56748 0.21875 2.49293 1.96413 2.07784 4.35463L1.62471 6.96426C1.47535 7.82443 1.1025 8.63024 0.543542 9.30089C-0.228913 10.2277 0.43013 11.6349 1.63663 11.6349H4.46479C4.64174 12.8453 5.70675 13.7758 6.99413 13.7758C8.28151 13.7758 9.34652 12.8453 9.52347 11.6349Z"/>
</mask>
<path d="M9.52347 11.6349V10.6349H8.65903L8.53399 11.4903L9.52347 11.6349ZM13.444 9.30089L14.2121 8.66065L14.2121 8.66064L13.444 9.30089ZM12.3628 6.96426L11.3775 7.13533L12.3628 6.96426ZM11.9097 4.35463L10.9244 4.52571V4.52571L11.9097 4.35463ZM2.07784 4.35463L1.09259 4.18355V4.18355L2.07784 4.35463ZM1.62471 6.96426L2.60997 7.13533L1.62471 6.96426ZM0.543542 9.30089L-0.224631 8.66065H-0.224631L0.543542 9.30089ZM4.46479 11.6349L5.45427 11.4903L5.32922 10.6349H4.46479V11.6349ZM12.3509 10.6349H9.52347V12.6349H12.3509V10.6349ZM12.6758 9.94113C12.9054 10.2166 12.7095 10.6349 12.3509 10.6349V12.6349C14.4053 12.6349 15.5274 10.2388 14.2121 8.66065L12.6758 9.94113ZM11.3775 7.13533C11.5569 8.16822 12.0046 9.13582 12.6758 9.94113L14.2121 8.66064C13.7654 8.12465 13.4674 7.48064 13.3481 6.79318L11.3775 7.13533ZM10.9244 4.52571L11.3775 7.13533L13.3481 6.79318L12.8949 4.18355L10.9244 4.52571ZM6.99376 1.21875C8.93375 1.21875 10.5925 2.61432 10.9244 4.52571L12.8949 4.18355C12.3967 1.31394 9.90631 -0.78125 6.99376 -0.78125V1.21875ZM3.0631 4.52571C3.39499 2.61431 5.05376 1.21875 6.99376 1.21875V-0.78125C4.0812 -0.78125 1.59086 1.31394 1.09259 4.18355L3.0631 4.52571ZM2.60997 7.13533L3.0631 4.52571L1.09259 4.18355L0.639455 6.79318L2.60997 7.13533ZM1.31171 9.94113C1.98291 9.13582 2.43062 8.16822 2.60997 7.13533L0.639455 6.79318C0.520085 7.48064 0.222099 8.12465 -0.224631 8.66065L1.31171 9.94113ZM1.63663 10.6349C1.278 10.6349 1.08211 10.2166 1.31171 9.94113L-0.224631 8.66065C-1.53993 10.2388 -0.417743 12.6349 1.63663 12.6349V10.6349ZM4.46479 10.6349H1.63663V12.6349H4.46479V10.6349ZM6.99413 12.7758C6.19307 12.7758 5.55796 12.1995 5.45427 11.4903L3.4753 11.7796C3.72552 13.4911 5.22043 14.7758 6.99413 14.7758V12.7758ZM8.53399 11.4903C8.43029 12.1995 7.79519 12.7758 6.99413 12.7758V14.7758C8.76782 14.7758 10.2627 13.4911 10.513 11.7796L8.53399 11.4903Z" fill="white" mask="url(#path-1-inside-1_713_19078)"/>
</svg>
