<svg width="20" height="20" viewBox="0 0 20 20" fill="none" xmlns="http://www.w3.org/2000/svg">
    <path d="M18.3307 9.9974C18.3307 5.40573 14.5891 1.66406 9.9974 1.66406C5.40573 1.66406 1.66406 5.40573 1.66406 9.9974C1.66406 12.4141 2.70573 14.5891 4.35573 16.1141C4.35573 16.1224 4.35573 16.1224 4.3474 16.1307C4.43073 16.2141 4.53073 16.2807 4.61406 16.3557C4.66406 16.3974 4.70573 16.4391 4.75573 16.4724C4.90573 16.5974 5.0724 16.7141 5.23073 16.8307C5.28906 16.8724 5.33906 16.9057 5.3974 16.9474C5.55573 17.0557 5.7224 17.1557 5.8974 17.2474C5.95573 17.2807 6.0224 17.3224 6.08073 17.3557C6.2474 17.4474 6.4224 17.5307 6.60573 17.6057C6.6724 17.6391 6.73906 17.6724 6.80573 17.6974C6.98906 17.7724 7.1724 17.8391 7.35573 17.8974C7.4224 17.9224 7.48906 17.9474 7.55573 17.9641C7.75573 18.0224 7.95573 18.0724 8.15573 18.1224C8.21406 18.1391 8.2724 18.1557 8.33906 18.1641C8.5724 18.2141 8.80573 18.2474 9.0474 18.2724C9.08073 18.2724 9.11406 18.2807 9.1474 18.2891C9.43073 18.3141 9.71406 18.3307 9.9974 18.3307C10.2807 18.3307 10.5641 18.3141 10.8391 18.2891C10.8724 18.2891 10.9057 18.2807 10.9391 18.2724C11.1807 18.2474 11.4141 18.2141 11.6474 18.1641C11.7057 18.1557 11.7641 18.1307 11.8307 18.1224C12.0307 18.0724 12.2391 18.0307 12.4307 17.9641C12.4974 17.9391 12.5641 17.9141 12.6307 17.8974C12.8141 17.8307 13.0057 17.7724 13.1807 17.6974C13.2474 17.6724 13.3141 17.6391 13.3807 17.6057C13.5557 17.5307 13.7307 17.4474 13.9057 17.3557C13.9724 17.3224 14.0307 17.2807 14.0891 17.2474C14.2557 17.1474 14.4224 17.0557 14.5891 16.9474C14.6474 16.9141 14.6974 16.8724 14.7557 16.8307C14.9224 16.7141 15.0807 16.5974 15.2307 16.4724C15.2807 16.4307 15.3224 16.3891 15.3724 16.3557C15.4641 16.2807 15.5557 16.2057 15.6391 16.1307C15.6391 16.1224 15.6391 16.1224 15.6307 16.1141C17.2891 14.5891 18.3307 12.4141 18.3307 9.9974ZM14.1141 14.1391C11.8557 12.6224 8.15573 12.6224 5.88073 14.1391C5.51406 14.3807 5.21406 14.6641 4.96406 14.9724C3.6974 13.6891 2.91406 11.9307 2.91406 9.9974C2.91406 6.08906 6.08906 2.91406 9.9974 2.91406C13.9057 2.91406 17.0807 6.08906 17.0807 9.9974C17.0807 11.9307 16.2974 13.6891 15.0307 14.9724C14.7891 14.6641 14.4807 14.3807 14.1141 14.1391Z" fill="#202D41" fill-opacity="0.4"/>
    <path d="M10 5.77344C8.275 5.77344 6.875 7.17344 6.875 8.89844C6.875 10.5901 8.2 11.9651 9.95833 12.0151C9.98333 12.0151 10.0167 12.0151 10.0333 12.0151C10.05 12.0151 10.075 12.0151 10.0917 12.0151C10.1 12.0151 10.1083 12.0151 10.1083 12.0151C11.7917 11.9568 13.1167 10.5901 13.125 8.89844C13.125 7.17344 11.725 5.77344 10 5.77344Z" fill="#202D41" fill-opacity="0.4"/>
</svg>