<svg width="18" height="25" viewBox="0 0 18 25" fill="none" xmlns="http://www.w3.org/2000/svg">
<path fill-rule="evenodd" clip-rule="evenodd" d="M8.82124 23.2725C4.51412 23.2725 0.835938 22.6023 0.835938 19.918C0.835938 17.2338 4.49079 14.7559 8.82124 14.7559C13.1284 14.7559 16.8065 17.2098 16.8065 19.894C16.8065 22.5772 13.1517 23.2725 8.82124 23.2725Z" stroke="#212121" stroke-width="1.5" stroke-linecap="round" stroke-linejoin="round"/>
<path fill-rule="evenodd" clip-rule="evenodd" d="M8.81383 11.0367C11.6403 11.0367 13.9313 8.74578 13.9313 5.91927C13.9313 3.09275 11.6403 0.800781 8.81383 0.800781C5.98731 0.800781 3.69534 3.09275 3.69534 5.91927C3.6858 8.73624 5.9608 11.0271 8.77777 11.0367C8.79049 11.0367 8.80216 11.0367 8.81383 11.0367Z" stroke="#212121" stroke-width="1.5" stroke-linecap="round" stroke-linejoin="round"/>
</svg>
