<svg width="18" height="18" viewBox="0 0 18 18" fill="none" xmlns="http://www.w3.org/2000/svg">
<path d="M10.9665 10.8582C10.4094 11.3073 9.71542 11.5522 8.99984 11.5522C8.28426 11.5522 7.59024 11.3073 7.03317 10.8582C6.86299 10.7167 6.64359 10.6487 6.42324 10.669C6.20288 10.6893 5.99962 10.7963 5.85817 10.9665C5.71673 11.1367 5.64867 11.3561 5.66899 11.5764C5.68931 11.7968 5.79633 12.0001 5.96651 12.1415C6.81762 12.852 7.89114 13.2412 8.99984 13.2412C10.1085 13.2412 11.1821 12.852 12.0332 12.1415C12.2034 12.0001 12.3104 11.7968 12.3307 11.5764C12.351 11.3561 12.283 11.1367 12.1415 10.9665C12.0715 10.8822 11.9855 10.8126 11.8886 10.7615C11.7916 10.7105 11.6856 10.679 11.5764 10.669C11.3561 10.6487 11.1367 10.7167 10.9665 10.8582ZM6.49984 8.1665C6.66466 8.1665 6.82578 8.11763 6.96282 8.02606C7.09986 7.93449 7.20667 7.80435 7.26974 7.65207C7.33281 7.4998 7.34932 7.33225 7.31716 7.1706C7.28501 7.00894 7.20564 6.86046 7.0891 6.74392C6.97255 6.62737 6.82407 6.548 6.66242 6.51585C6.50076 6.4837 6.33321 6.5002 6.18094 6.56327C6.02867 6.62634 5.89852 6.73315 5.80695 6.8702C5.71538 7.00724 5.66651 7.16835 5.66651 7.33317C5.66651 7.55418 5.7543 7.76615 5.91059 7.92243C6.06687 8.07871 6.27883 8.1665 6.49984 8.1665ZM11.4998 6.49984C11.335 6.49984 11.1739 6.54871 11.0369 6.64028C10.8998 6.73185 10.793 6.862 10.7299 7.01427C10.6669 7.16654 10.6504 7.3341 10.6825 7.49575C10.7147 7.6574 10.794 7.80588 10.9106 7.92243C11.0271 8.03897 11.1756 8.11834 11.3373 8.15049C11.4989 8.18265 11.6665 8.16614 11.8187 8.10307C11.971 8.04 12.1012 7.93319 12.1927 7.79615C12.2843 7.65911 12.3332 7.49799 12.3332 7.33317C12.3332 7.11216 12.2454 6.9002 12.0891 6.74392C11.9328 6.58764 11.7209 6.49984 11.4998 6.49984ZM8.99984 0.666504C7.35166 0.666504 5.7405 1.15525 4.37009 2.07092C2.99968 2.9866 1.93158 4.28809 1.30084 5.81081C0.670115 7.33353 0.505087 9.00908 0.82663 10.6256C1.14817 12.2421 1.94185 13.727 3.10728 14.8924C4.27272 16.0578 5.75758 16.8515 7.37409 17.173C8.9906 17.4946 10.6662 17.3296 12.1889 16.6988C13.7116 16.0681 15.0131 15 15.9288 13.6296C16.8444 12.2592 17.3332 10.648 17.3332 8.99984C17.3332 7.90549 17.1176 6.82186 16.6988 5.81081C16.28 4.79976 15.6662 3.8811 14.8924 3.10728C14.1186 2.33346 13.1999 1.71963 12.1889 1.30084C11.1778 0.882052 10.0942 0.666504 8.99984 0.666504ZM8.99984 15.6665C7.6813 15.6665 6.39237 15.2755 5.29604 14.543C4.19971 13.8104 3.34523 12.7692 2.84064 11.5511C2.33606 10.3329 2.20404 8.99244 2.46127 7.69924C2.71851 6.40603 3.35345 5.21814 4.2858 4.28579C5.21815 3.35344 6.40603 2.7185 7.69924 2.46127C8.99245 2.20403 10.3329 2.33606 11.5511 2.84064C12.7692 3.34522 13.8104 4.19971 14.543 5.29604C15.2755 6.39236 15.6665 7.6813 15.6665 8.99984C15.6665 10.7679 14.9641 12.4636 13.7139 13.7139C12.4636 14.9641 10.768 15.6665 8.99984 15.6665Z" fill="#9E9E9E"/>
</svg>
